<?xml version="1.0" encoding="UTF-8" standalone="no"?>
<svg width="106px" height="25px" viewBox="0 0 106 25" version="1.1" xmlns="http://www.w3.org/2000/svg" xmlns:xlink="http://www.w3.org/1999/xlink">
    <defs></defs>
    <g id="activation" stroke="none" stroke-width="1" fill="none" fill-rule="evenodd">
        <g id="15-tiller-app-download-1" transform="translate(-1075.000000, -464.000000)">
            <g id="Group-5" transform="translate(417.000000, 398.000000)">
                <g id="Group-3" transform="translate(592.800000, 52.000000)">
                    <g id="email-copy">
                        <g id="app-store" transform="translate(66.400000, 15.200000)">
                            <path d="M33.370493,6.25133518 L28.6848,18.2858129 L30.319736,18.2858129 L31.6681369,14.6619856 L36.7583502,14.6619856 L38.073041,18.2858129 L39.8428171,18.2858129 L35.1402691,6.25133518 L33.370493,6.25133518 Z M32.1737872,13.3135847 L34.2132435,7.70086611 L34.2469536,7.70086611 L36.2526998,13.3135847 L32.1737872,13.3135847 Z M40.8372628,9.57177231 L40.8372628,21.60625 L42.2699387,21.60625 L42.2699387,17.1228171 L42.3036487,17.1228171 C42.4609629,17.3812619 42.6547936,17.5975657 42.8851466,17.771735 C43.1154995,17.9459044 43.3598948,18.0835522 43.6183395,18.1846828 C43.8767843,18.2858134 44.1380344,18.358851 44.4020975,18.403798 C44.6661607,18.4487449 44.9049376,18.471218 45.1184355,18.471218 C45.7814026,18.471218 46.3628946,18.3532341 46.8629291,18.1172628 C47.3629636,17.8812914 47.7787164,17.5582403 48.1101999,17.1480996 C48.4416835,16.737959 48.6888878,16.257596 48.8518204,15.7069962 C49.014753,15.1563965 49.096218,14.5720953 49.096218,13.9540751 C49.096218,13.336055 49.0119438,12.7517538 48.8433929,12.201154 C48.6748419,11.6505542 48.4248284,11.1645729 48.0933449,10.7431956 C47.7618614,10.3218182 47.3461086,9.98753047 46.8460741,9.74032241 C46.3460396,9.49311435 45.7589293,9.36951218 45.0847255,9.36951218 C44.4779421,9.36951218 43.9217323,9.47906865 43.4160794,9.69818489 C42.9104266,9.91730112 42.53962,10.2684437 42.3036487,10.7516231 L42.2699387,10.7516231 L42.2699387,9.57177231 L40.8372628,9.57177231 Z M47.5792671,13.852945 C47.5792671,14.2799408 47.5343208,14.6956936 47.444427,15.1002158 C47.3545332,15.5047381 47.2084579,15.8643081 47.0061967,16.1789365 C46.8039356,16.493565 46.5370672,16.7463876 46.2055837,16.937412 C45.8741002,17.1284364 45.4611565,17.2239472 44.9667404,17.2239472 C44.4723243,17.2239472 44.0509532,17.1312456 43.7026146,16.9458395 C43.354276,16.7604335 43.0705528,16.5160383 42.8514366,16.2126466 C42.6323203,15.9092548 42.4721993,15.5581123 42.3710687,15.1592084 C42.2699382,14.7603045 42.2193737,14.3473608 42.2193737,13.9203651 C42.2193737,13.5158428 42.267129,13.1169449 42.3626412,12.7236593 C42.4581534,12.3303738 42.6126562,11.9792312 42.826154,11.6702211 C43.0396519,11.3612111 43.3149477,11.1111976 43.6520496,10.9201732 C43.9891515,10.7291488 44.399286,10.633638 44.8824654,10.633638 C45.3431713,10.633638 45.7448784,10.7235305 46.0875986,10.9033182 C46.4303189,11.0831058 46.7112329,11.3246919 46.9303492,11.6280836 C47.1494654,11.9314753 47.3123955,12.2769996 47.4191445,12.6646668 C47.5258934,13.052334 47.5792671,13.4484228 47.5792671,13.852945 Z M50.8322842,9.57177231 L50.8322842,21.60625 L52.2649601,21.60625 L52.2649601,17.1228171 L52.2986701,17.1228171 C52.4559843,17.3812619 52.649815,17.5975657 52.880168,17.771735 C53.1105209,17.9459044 53.3549161,18.0835522 53.6133609,18.1846828 C53.8718057,18.2858134 54.1330558,18.358851 54.3971189,18.403798 C54.6611821,18.4487449 54.899959,18.471218 55.1134569,18.471218 C55.776424,18.471218 56.357916,18.3532341 56.8579505,18.1172628 C57.357985,17.8812914 57.7737378,17.5582403 58.1052213,17.1480996 C58.4367048,16.737959 58.6839092,16.257596 58.8468418,15.7069962 C59.0097744,15.1563965 59.0912394,14.5720953 59.0912394,13.9540751 C59.0912394,13.336055 59.0069652,12.7517538 58.8384143,12.201154 C58.6698633,11.6505542 58.4198498,11.1645729 58.0883663,10.7431956 C57.7568828,10.3218182 57.34113,9.98753047 56.8410955,9.74032241 C56.341061,9.49311435 55.7539507,9.36951218 55.0797469,9.36951218 C54.4729635,9.36951218 53.9167537,9.47906865 53.4111008,9.69818489 C52.905448,9.91730112 52.5346414,10.2684437 52.2986701,10.7516231 L52.2649601,10.7516231 L52.2649601,9.57177231 L50.8322842,9.57177231 Z M57.5742885,13.852945 C57.5742885,14.2799408 57.5293422,14.6956936 57.4394484,15.1002158 C57.3495545,15.5047381 57.2034792,15.8643081 57.0012181,16.1789365 C56.798957,16.493565 56.5320886,16.7463876 56.2006051,16.937412 C55.8691216,17.1284364 55.4561779,17.2239472 54.9617618,17.2239472 C54.4673457,17.2239472 54.0459746,17.1312456 53.697636,16.9458395 C53.3492974,16.7604335 53.0655742,16.5160383 52.8464579,16.2126466 C52.6273417,15.9092548 52.4672207,15.5581123 52.3660901,15.1592084 C52.2649596,14.7603045 52.214395,14.3473608 52.214395,13.9203651 C52.214395,13.5158428 52.2621504,13.1169449 52.3576626,12.7236593 C52.4531748,12.3303738 52.6076776,11.9792312 52.8211754,11.6702211 C53.0346733,11.3612111 53.3099691,11.1111976 53.647071,10.9201732 C53.9841729,10.7291488 54.3943074,10.633638 54.8774867,10.633638 C55.3381927,10.633638 55.7398998,10.7235305 56.08262,10.9033182 C56.4253403,11.0831058 56.7062543,11.3246919 56.9253706,11.6280836 C57.1444868,11.9314753 57.3074169,12.2769996 57.4141659,12.6646668 C57.5209148,13.052334 57.5742885,13.4484228 57.5742885,13.852945 Z M72.6595231,9.77403244 L74.1764741,9.77403244 C74.1540006,9.11106536 74.0275893,8.54080987 73.7972363,8.06324884 C73.5668834,7.58568782 73.2522597,7.18959902 72.8533557,6.87497058 C72.4544518,6.56034214 71.9909437,6.32999263 71.4628173,6.18391514 C70.934691,6.03783765 70.3616264,5.9648 69.7436063,5.9648 C69.1930065,5.9648 68.6564607,6.03502851 68.1339527,6.17548763 C67.6114448,6.31594676 67.1451275,6.52944143 66.7349868,6.81597804 C66.3248462,7.10251466 65.9961768,7.46770291 65.7489687,7.91155374 C65.5017606,8.35540458 65.3781585,8.88071383 65.3781585,9.48749725 C65.3781585,10.038097 65.4877149,10.4959869 65.7068312,10.8611806 C65.9259474,11.2263744 66.218098,11.5241432 66.5832917,11.7544962 C66.9484855,11.9848492 67.3614291,12.1702524 67.822135,12.3107116 C68.282841,12.4511707 68.7519674,12.5747729 69.2295284,12.6815218 C69.7070894,12.7882707 70.1762159,12.8922089 70.6369218,12.9933395 C71.0976278,13.0944701 71.5105714,13.2264997 71.8757651,13.3894322 C72.2409588,13.5523648 72.5331094,13.7630504 72.7522257,14.0214952 C72.9713419,14.2799399 73.0808984,14.6170368 73.0808984,15.0327958 C73.0808984,15.4710283 72.9910059,15.8305982 72.8112182,16.1115165 C72.6314305,16.3924347 72.3954627,16.6143568 72.1033078,16.7772894 C71.8111528,16.940222 71.4824834,17.0553968 71.1172896,17.1228171 C70.7520959,17.1902375 70.3897168,17.2239472 70.0301414,17.2239472 C69.5806722,17.2239472 69.1424463,17.1677644 68.7154506,17.0553971 C68.2884549,16.9430298 67.9148392,16.7688631 67.5945924,16.5328918 C67.2743456,16.2969204 67.0159047,15.9963424 66.8192619,15.6311487 C66.6226191,15.265955 66.5242992,14.8305382 66.5242992,14.3248853 L65.0073482,14.3248853 C65.0073482,15.0552728 65.1393778,15.6873294 65.403441,16.2210741 C65.6675041,16.7548187 66.0270741,17.1930446 66.4821617,17.5357649 C66.9372492,17.8784852 67.4653676,18.1341169 68.0665327,18.3026679 C68.6676977,18.4712188 69.3053726,18.555493 69.9795764,18.555493 C70.5301762,18.555493 71.0835768,18.4908828 71.639795,18.3616604 C72.1960131,18.232438 72.6988492,18.0245616 73.1483184,17.738025 C73.5977876,17.4514884 73.965785,17.0806819 74.2523216,16.6255943 C74.5388582,16.1705067 74.6821244,15.6227244 74.6821244,14.9822308 C74.6821244,14.3866841 74.5725679,13.8922754 74.3534517,13.4989898 C74.1343355,13.1057043 73.8421849,12.779844 73.4769911,12.5213992 C73.1117974,12.2629544 72.6988538,12.0578872 72.2381478,11.9061913 C71.7774419,11.7544954 71.3083155,11.6224658 70.8307544,11.5100985 C70.3531934,11.3977312 69.884067,11.2937931 69.423361,11.1982808 C68.9626551,11.1027686 68.5497115,10.9819756 68.1845178,10.8358981 C67.819324,10.6898206 67.5271734,10.5016082 67.3080572,10.2712553 C67.088941,10.0409023 66.9793845,9.74032427 66.9793845,9.36951218 C66.9793845,8.97622663 67.0552313,8.6475572 67.2069271,8.38349405 C67.358623,8.11943089 67.5608811,7.90874536 67.8137075,7.75143114 C68.0665339,7.59411692 68.3558754,7.48175131 68.6817406,7.41433093 C69.0076057,7.34691055 69.3390843,7.31320086 69.6761862,7.31320086 C70.5077042,7.31320086 71.1903253,7.50703155 71.72407,7.89469873 C72.2578147,8.28236592 72.5696293,8.90880422 72.6595231,9.77403244 Z M78.3733718,9.57177231 L78.3733718,6.95924564 L76.9406959,6.95924564 L76.9406959,9.57177231 L75.4574549,9.57177231 L75.4574549,10.8358981 L76.9406959,10.8358981 L76.9406959,16.3811967 C76.9406959,16.7857189 76.9800238,17.1115792 77.0586809,17.3587873 C77.137338,17.6059953 77.2581311,17.7970169 77.4210637,17.9318577 C77.5839962,18.0666984 77.7974909,18.1594 78.0615541,18.2099653 C78.3256172,18.2605306 78.6430501,18.2858129 79.0138622,18.2858129 L80.1094379,18.2858129 L80.1094379,17.0216871 L79.4520925,17.0216871 C79.2273579,17.0216871 79.0447637,17.0132596 78.9043046,16.9964046 C78.7638455,16.9795495 78.654289,16.9430306 78.5756319,16.886847 C78.4969748,16.8306633 78.4436011,16.7520074 78.4155093,16.6508768 C78.3874175,16.5497463 78.3733718,16.4149075 78.3733718,16.2463566 L78.3733718,10.8358981 L80.1094379,10.8358981 L80.1094379,9.57177231 L78.3733718,9.57177231 Z M81.2218686,13.9372201 C81.2218686,14.5777137 81.3117611,15.1732515 81.4915488,15.7238512 C81.6713364,16.274451 81.9410139,16.754814 82.3005893,17.1649547 C82.6601646,17.5750953 83.1040088,17.8953373 83.6321351,18.1256903 C84.1602614,18.3560432 84.7670358,18.471218 85.4524763,18.471218 C86.1491536,18.471218 86.758737,18.3560432 87.281245,18.1256903 C87.8037529,17.8953373 88.2447879,17.5750953 88.6043633,17.1649547 C88.9639387,16.754814 89.2336161,16.274451 89.4134038,15.7238512 C89.5931915,15.1732515 89.683084,14.5777137 89.683084,13.9372201 C89.683084,13.2967265 89.5931915,12.6983796 89.4134038,12.1421614 C89.2336161,11.5859433 88.9639387,11.1027712 88.6043633,10.6926305 C88.2447879,10.2824899 87.8037529,9.95943873 87.281245,9.7234674 C86.758737,9.48749607 86.1491536,9.36951218 85.4524763,9.36951218 C84.7670358,9.36951218 84.1602614,9.48749607 83.6321351,9.7234674 C83.1040088,9.95943873 82.6601646,10.2824899 82.3005893,10.6926305 C81.9410139,11.1027712 81.6713364,11.5859433 81.4915488,12.1421614 C81.3117611,12.6983796 81.2218686,13.2967265 81.2218686,13.9372201 Z M82.7388196,13.9372201 C82.7388196,13.4090938 82.8090481,12.9399673 82.9495072,12.5298267 C83.0899663,12.1196861 83.283797,11.7741618 83.5310051,11.4932435 C83.7782131,11.2123253 84.0675546,10.9988306 84.3990381,10.8527531 C84.7305217,10.7066756 85.0816642,10.633638 85.4524763,10.633638 C85.8232884,10.633638 86.1744309,10.7066756 86.5059145,10.8527531 C86.837398,10.9988306 87.1267395,11.2123253 87.3739475,11.4932435 C87.6211556,11.7741618 87.8149863,12.1196861 87.9554454,12.5298267 C88.0959045,12.9399673 88.166133,13.4090938 88.166133,13.9372201 C88.166133,14.4653464 88.0959045,14.9344729 87.9554454,15.3446135 C87.8149863,15.7547541 87.6211556,16.0974693 87.3739475,16.3727692 C87.1267395,16.648069 86.837398,16.8587546 86.5059145,17.0048321 C86.1744309,17.1509095 85.8232884,17.2239472 85.4524763,17.2239472 C85.0816642,17.2239472 84.7305217,17.1509095 84.3990381,17.0048321 C84.0675546,16.8587546 83.7782131,16.648069 83.5310051,16.3727692 C83.283797,16.0974693 83.0899663,15.7547541 82.9495072,15.3446135 C82.8090481,14.9344729 82.7388196,14.4653464 82.7388196,13.9372201 Z M91.31802,9.57177231 L91.31802,18.2858129 L92.750696,18.2858129 L92.750696,14.4091604 C92.750696,13.8473239 92.8068788,13.3501061 92.9192461,12.9174919 C93.0316134,12.4848778 93.2113984,12.1168805 93.4586064,11.8134887 C93.7058145,11.510097 94.0316748,11.2797475 94.436197,11.1224333 C94.8407193,10.9651191 95.3295097,10.8864631 95.902583,10.8864631 L95.902583,9.36951218 C95.1272486,9.34703872 94.4867646,9.50435058 93.9811117,9.84145248 C93.4754589,10.1785544 93.0484696,10.7010545 92.7001309,11.4089685 L92.6664209,11.4089685 L92.6664209,9.57177231 L91.31802,9.57177231 Z M104.110973,15.5215911 L102.695152,15.5215911 C102.571548,16.0946643 102.315917,16.5216537 101.928249,16.8025719 C101.540582,17.0834902 101.043364,17.2239472 100.436581,17.2239472 C99.9646382,17.2239472 99.5545037,17.1452913 99.2061651,16.987977 C98.8578265,16.8306628 98.5712941,16.6199773 98.3465595,16.3559141 C98.1218249,16.091851 97.9588948,15.7884638 97.8577642,15.4457436 C97.7566337,15.1030233 97.7116874,14.7406442 97.7229241,14.3585954 L104.245813,14.3585954 C104.268287,13.8304691 104.220531,13.2742593 104.102546,12.6899493 C103.98456,12.1056393 103.771065,11.5662844 103.462055,11.0718683 C103.153045,10.5774521 102.742911,10.1701268 102.23164,9.84987998 C101.720368,9.52963318 101.077075,9.36951218 100.301741,9.36951218 C99.7061941,9.36951218 99.1584117,9.48187779 98.6583772,9.70661239 C98.1583427,9.93134699 97.7257351,10.2459707 97.3605414,10.650493 C96.9953477,11.0550153 96.7116245,11.5325691 96.5093634,12.0831689 C96.3071022,12.6337687 96.2059732,13.240543 96.2059732,13.9035101 C96.2284466,14.5664771 96.3267665,15.1788697 96.5009359,15.7407062 C96.6751052,16.3025428 96.9363552,16.7857149 97.2846939,17.1902372 C97.6330325,17.5947595 98.062831,17.9093832 98.5741022,18.1341178 C99.0853734,18.3588524 99.6893386,18.471218 100.386016,18.471218 C101.374848,18.471218 102.195117,18.2240136 102.846847,17.7295975 C103.498578,17.2351814 103.919949,16.4991866 104.110973,15.5215911 Z M102.728862,13.0944696 L97.7229241,13.0944696 C97.7453976,12.7573677 97.8184352,12.4399348 97.9420393,12.1421614 C98.0656433,11.8443881 98.2341917,11.583138 98.4476896,11.3584034 C98.6611875,11.1336688 98.9168192,10.956693 99.2145926,10.8274706 C99.5123659,10.6982482 99.8466536,10.633638 100.217466,10.633638 C100.577041,10.633638 100.905711,10.6982482 101.203484,10.8274706 C101.501257,10.956693 101.759698,11.1308597 101.978814,11.3499759 C102.197931,11.5690922 102.372097,11.8303422 102.50132,12.1337339 C102.630542,12.4371257 102.706389,12.7573677 102.728862,13.0944696 Z" id="Imported-Layers" fill="#898989"></path>
                            <g id="apple" stroke="#898989" stroke-width="1.6">
                                <path d="M13.70496,0 C14.0873143,2.40285714 11.90784,5.37466667 9.30322286,5.278 C8.92032,2.22057143 11.72736,0.161295238 13.70496,0 L13.70496,0 Z" id="Imported-Layers"></path>
                                <path d="M14.1509486,4.99904762 C16.7451429,4.99904762 18.4040229,7.50906667 18.4040229,7.50906667 C18.4040229,7.50906667 15.8734629,8.88228571 15.8734629,11.8645905 C15.8734629,15.4042476 19.0524343,16.4338857 19.0524343,16.4338857 C19.0524343,16.4338857 16.5432686,22.3874476 13.7258057,22.3874476 C12.1415314,22.3874476 12.0356571,21.476019 9.93024,21.476019 C8.10185143,21.476019 7.48525714,22.3874476 6.09243429,22.3874476 C3.43405714,22.3874476 0,16.5841333 0,11.8645905 C0,6.96220952 3.47684571,4.99904762 5.65632,4.99904762 C7.57028571,4.99904762 8.36736,6.12535238 9.90884571,6.12535238 C11.2062171,6.12535238 12.2271086,4.99904762 14.1509486,4.99904762 L14.1509486,4.99904762 Z" id="Imported-Layers"></path>
                            </g>
                        </g>
                    </g>
                </g>
            </g>
        </g>
    </g>
</svg>