<svg width="175px" height="69px" viewBox="41 27 175 69" version="1.1" xmlns="http://www.w3.org/2000/svg" xmlns:xlink="http://www.w3.org/1999/xlink">
    <!-- Generator: Sketch 39.1 (31720) - http://www.bohemiancoding.com/sketch -->
    <desc>Created with Sketch.</desc>
    <defs></defs>
    <g id="logo-tiller_orange" stroke="none" stroke-width="1" fill="none" fill-rule="evenodd" transform="translate(41.000000, 27.000000)">
        <g id="logo-tiller_orange-type" transform="translate(76.000000, 14.000000)" fill="#F06617">
            <path d="M4.41407823,2 L11.0350294,2 L11.0350294,10.7624689 L17,10.7624689 L17,16.0079865 L11.0350294,16.0079865 L11.0350294,31.6819696 C11.0350294,34.8290051 11.7508259,35.5695245 14.5541959,35.5695245 L16.9401841,35.5695245 L16.9401841,41 L12.1087241,41 C5.72637176,41 4.41407823,39.2105834 4.41407823,32.9161686 L4.41407823,16.0079865 L0,16.0079865 L0,10.7624689 L4.41407823,10.7624689 L4.41407823,2 Z" id="Fill-37"></path>
            <path d="M20,6.9157787 L27,6.9157787 L27,0 L20,0 L20,6.9157787 Z M20,41 L27,41 L27,10.7441562 L20,10.7441562 L20,41 Z" id="Fill-38"></path>
            <polygon id="Fill-39" points="30 41 37 41 37 0 30 0"></polygon>
            <polygon id="Fill-40" points="41 41 48 41 48 0 41 0"></polygon>
            <path d="M50,26 C50,16.5624687 55.8528736,10 64.6020978,10 C74.015237,10 79.5060668,17.4374878 78.9631691,28.0623708 L56.7581512,28.0623708 C56.8788325,33.1251551 60.1368907,36.437553 64.6626065,36.437553 C68.886451,36.437553 70.9982052,34.3748341 72.0238279,31.6251224 L78.4801079,32.4997933 C77.0924413,37.0625666 72.8084243,42 64.7832878,42 C54.9479322,42 50,34.9375204 50,26 M56.7581512,22.9372593 L72.1448454,22.9372593 C71.9636554,18.2498313 68.705261,15.3124415 64.6626065,15.3124415 C60.7406332,15.3124415 56.9995138,17.6248177 56.7581512,22.9372593" id="Fill-41"></path>
            <path d="M99,17.7820226 C97.8708371,17.659821 96.8671367,17.5988903 95.8005304,17.5988903 C91.4722473,17.5988903 88.9629965,19.492846 88.9629965,25.6029297 L88.9629965,41 L82,41 L82,11.0609306 L88.8375339,11.0609306 L88.8375339,16.0102686 C90.531453,12.7717541 93.5425541,11.0609306 97.3060809,11 C97.8708371,11 98.4981498,11.0609306 99,11.1222017 L99,17.7820226 Z" id="Fill-42"></path>
        </g>
        <g id="logo-tiller_orange-dots" fill="#F06617">
            <path d="M33,3.5 C33,5.43303655 31.43311,7 29.500164,7 C27.567218,7 26,5.43303655 26,3.5 C26,1.56696345 27.567218,0 29.500164,0 C31.43311,0 33,1.56696345 33,3.5" id="Fill-43"></path>
            <path d="M7,18.5 C7,20.4330366 5.43310998,22 3.500164,22 C1.56721803,22 0,20.4330366 0,18.5 C0,16.5669634 1.56721803,15 3.500164,15 C5.43310998,15 7,16.5669634 7,18.5" id="Fill-44"></path>
            <path d="M7,49.5 C7,51.4330366 5.43310998,53 3.500164,53 C1.56721803,53 0,51.4330366 0,49.5 C0,47.5669634 1.56721803,46 3.500164,46 C5.43310998,46 7,47.5669634 7,49.5" id="Fill-45"></path>
            <path d="M33,65.5 C33,67.4330366 31.43311,69 29.500164,69 C27.567218,69 26,67.4330366 26,65.5 C26,63.5669634 27.567218,62 29.500164,62 C31.43311,62 33,63.5669634 33,65.5" id="Fill-46"></path>
            <path d="M60,49.5 C60,51.4330366 58.43311,53 56.500164,53 C54.567218,53 53,51.4330366 53,49.5 C53,47.5669634 54.567218,46 56.500164,46 C58.43311,46 60,47.5669634 60,49.5" id="Fill-47"></path>
            <path d="M60,18.5 C60,20.4330366 58.43311,22 56.500164,22 C54.567218,22 53,20.4330366 53,18.5 C53,16.5669634 54.567218,15 56.500164,15 C58.43311,15 60,16.5669634 60,18.5" id="Fill-48"></path>
            <path d="M36,34.9998243 C36,38.3135745 33.3135745,41 29.9998243,41 C26.6864255,41 24,38.3135745 24,34.9998243 C24,31.6860741 26.6864255,29 29.9998243,29 C33.3135745,29 36,31.6860741 36,34.9998243" id="Fill-49"></path>
            <path d="M51,34.9998243 C51,38.3135745 48.3135745,41 44.9998243,41 C41.6864255,41 39,38.3135745 39,34.9998243 C39,31.6860741 41.6864255,29 44.9998243,29 C48.3135745,29 51,31.6860741 51,34.9998243" id="Fill-50"></path>
            <path d="M22,34.9998243 C22,38.3135745 19.3135745,41 15.9998243,41 C12.6864255,41 10,38.3135745 10,34.9998243 C10,31.6860741 12.6864255,29 15.9998243,29 C19.3135745,29 22,31.6860741 22,34.9998243" id="Fill-51"></path>
            <path d="M36,20 C36,23.3136531 33.3135745,26 29.9998243,26 C26.6864255,26 24,23.3136531 24,20 C24,16.6863469 26.6864255,14 29.9998243,14 C33.3135745,14 36,16.6863469 36,20" id="Fill-52"></path>
            <path d="M36,49 C36,52.3136531 33.3135745,55 29.9998243,55 C26.6864255,55 24,52.3136531 24,49 C24,45.6863469 26.6864255,43 29.9998243,43 C33.3135745,43 36,45.6863469 36,49" id="Fill-53"></path>
        </g>
    </g>
</svg>