<?xml version="1.0" encoding="UTF-8" standalone="no"?>
<svg width="114px" height="21px" viewBox="0 0 114 21" version="1.1" xmlns="http://www.w3.org/2000/svg" xmlns:xlink="http://www.w3.org/1999/xlink">
    <defs></defs>
    <g id="activation" stroke="none" stroke-width="1" fill="none" fill-rule="evenodd">
        <g id="15-tiller-app-download-1" transform="translate(-1329.000000, -468.000000)" fill="#898989">
            <g id="Group-5" transform="translate(417.000000, 398.000000)">
                <g id="Group-3" transform="translate(592.800000, 52.000000)">
                    <g id="sms-copy" transform="translate(257.600000, 0.000000)">
                        <g id="play-store" transform="translate(62.400000, 18.000000)">
                            <path d="M79.0682439,12.7431151 L78.150364,13.6194444 C77.9382393,13.7374008 77.727252,13.8743452 77.5168335,13.9715873 C76.8793221,14.2644643 76.2310055,14.3381151 75.6549136,14.3381151 C75.0418562,14.3381151 74.0807552,14.2978373 73.1003185,13.5803175 C71.7382848,12.609623 71.1428571,10.9409722 71.1428571,9.48694444 C71.1428571,6.47646825 73.5649454,5 75.5406051,5 C76.2310055,5 76.9401729,5.17492063 77.5168335,5.54375 C78.4756597,6.18531746 78.7236124,7.01906746 78.8612375,7.4655754 L74.3497498,9.30972222 L72.8722702,9.42595238 C73.350546,11.8944048 75.0009099,13.3300198 76.824727,13.3300198 C77.7357825,13.3300198 78.4119654,13.0290873 79.0324158,12.7189484 C79.0324158,12.7189484 79.1569609,12.6533532 79.0682439,12.7431151 L79.0682439,12.7431151 Z M76.3464513,7.83325397 C76.7126934,7.69861111 76.9032075,7.58238095 76.9032075,7.31194444 C76.9032075,6.53630952 76.0359418,5.64041667 75.0009099,5.64041667 C74.2343039,5.64041667 72.7949272,6.24458333 72.7949272,8.34248016 C72.7949272,8.66988095 72.8335987,9.01857143 72.8529345,9.3672619 L76.3464513,7.83325397 Z M69.6352366,12.5929365 C69.6352366,13.3472817 69.7683121,13.4646627 70.3989991,13.5239286 C70.727707,13.5630556 71.0552775,13.5803175 71.3794359,13.6194444 L70.6696997,14.0469643 L67.2876479,14.0469643 C67.7312329,13.4646627 67.8074386,13.4065476 67.8074386,13.0187302 L67.8074386,12.5854563 L67.8000455,1.04069444 L66.3066424,1.04069444 L67.744313,0.339861111 L70.4888535,0.339861111 C69.8939945,0.688551587 69.7159918,0.900873016 69.6397862,1.58041667 L69.6352366,12.5929365 Z M64.3901274,5.95285714 C64.830869,6.31938492 65.750455,7.09732143 65.750455,8.57263889 C65.750455,10.0105556 64.9491583,10.688373 64.1410373,11.3299405 C63.8930846,11.5825397 63.6030482,11.8564286 63.6030482,12.2799206 C63.6030482,12.7097421 63.8930846,12.9427778 64.1017971,13.1165476 L64.7950409,13.657996 C65.6378526,14.3778175 66.4061647,15.0377976 66.4061647,16.3784722 C66.4061647,18.2047817 64.6591219,20.046627 61.3578253,20.046627 C58.5768881,20.046627 57.2324841,18.7065278 57.2324841,17.2697619 C57.2324841,16.5706548 57.5765469,15.5803968 58.7116697,14.902004 C59.9013876,14.1660714 61.5130801,14.0676786 62.3763649,14.0101389 C62.1068016,13.657996 61.7991356,13.2891667 61.7991356,12.6873016 C61.7991356,12.3581746 61.8969518,12.1619643 61.9913558,11.9306548 C61.7815059,11.9507937 61.56995,11.9715079 61.3777298,11.9715079 C59.3423567,11.9715079 58.191879,10.4351984 58.191879,8.92132937 C58.191879,8.02831349 58.5945177,7.03748016 59.4214058,6.31938492 C60.5155823,5.40795635 61.8201774,5.25087302 62.8569154,5.25087302 L66.811647,5.25087302 L65.5821201,5.95285714 L64.3901274,5.95285714 Z M63.0303685,14.572877 C62.8728389,14.5521627 62.7784349,14.5521627 62.5884895,14.5521627 C62.4144677,14.5521627 61.3777298,14.5901389 60.574727,14.862877 C60.149909,15.0199603 58.9220883,15.4843056 58.9220883,16.8635317 C58.9220883,18.239881 60.2477252,19.2324405 62.2984531,19.2324405 C64.1410373,19.2324405 65.1191993,18.3388492 65.1191993,17.1356944 C65.1191993,16.1454365 64.4862375,15.6229762 63.0303685,14.572877 L63.0303685,14.572877 Z M63.5820064,10.8834325 C64.0255914,10.4351984 64.064263,9.81607143 64.064263,9.46450397 C64.064263,8.06801587 63.2413558,5.89301587 61.6461556,5.89301587 C61.1485441,5.89301587 60.6094177,6.14561508 60.3034577,6.53630952 C59.9787307,6.94081349 59.8814832,7.4655754 59.8814832,7.97019841 C59.8814832,9.27059524 60.6310282,11.4271825 62.2796861,11.4271825 C62.7608053,11.4271825 63.2783212,11.1906944 63.5820064,10.8834325 Z M52.4918107,14.2978373 C49.4413103,14.2978373 47.8091447,11.8944048 47.8091447,9.71825397 C47.8091447,7.1755754 49.86101,5 52.7795723,5 C55.6008872,5 57.3678344,7.23484127 57.3678344,9.58130952 C57.3678344,11.8731151 55.6213603,14.2978373 52.4918107,14.2978373 Z M54.8917197,12.727004 C55.355778,12.1055754 55.4683803,11.3299405 55.4683803,10.573869 C55.4683803,8.86378968 54.6631028,5.60244048 52.2830983,5.60244048 C51.6501365,5.60244048 51.0126251,5.8527381 50.5531165,6.26126984 C49.8035714,6.94081349 49.6699272,7.79470238 49.6699272,8.63248016 C49.6699272,10.5508532 50.6071429,13.7149603 52.933121,13.7149603 C53.6838035,13.7149603 54.4498408,13.3472817 54.8917197,12.727004 Z M42.2785487,14.2978373 C39.2274795,14.2978373 37.5981574,11.8944048 37.5981574,9.71825397 C37.5981574,7.1755754 39.6505914,5 42.5680164,5 C45.3876251,5 47.1528662,7.23484127 47.1528662,9.58130952 C47.1528662,11.8731151 45.408667,14.2978373 42.2785487,14.2978373 Z M44.6790264,12.727004 C45.1396724,12.1055754 45.2545496,11.3299405 45.2545496,10.573869 C45.2545496,8.86378968 44.4469973,5.60244048 42.0692675,5.60244048 C41.4340309,5.60244048 40.8033439,5.8527381 40.3426979,6.26126984 C39.5920155,6.94081349 39.4589399,7.79470238 39.4589399,8.63248016 C39.4589399,10.5508532 40.4001365,13.7149603 42.7221338,13.7149603 C43.4711101,13.7149603 44.23601,13.3472817 44.6790264,12.727004 Z M36.3782985,13.6240476 L33.805505,14.2201587 C32.7630801,14.3864484 31.8270018,14.5325992 30.8357598,14.5325992 C25.8732939,14.5325992 23.9823703,10.8368254 23.9823703,7.94430556 C23.9823703,4.41194444 26.6615105,1.13678571 31.2497725,1.13678571 C32.2205414,1.13678571 33.1543449,1.28121032 34.0051183,1.51597222 C35.3535032,1.89918651 35.9841902,2.3715873 36.3782985,2.64835317 L34.883758,4.08454365 L34.2536397,4.22724206 L34.7029117,3.50281746 C34.094404,2.90152778 32.9757734,1.7915873 30.8528207,1.7915873 C28.0144449,1.7915873 25.8732939,3.97464286 25.8732939,7.16176587 C25.8732939,10.5848016 28.3181301,13.8047222 32.2393085,13.8047222 C33.3914923,13.8047222 33.9846451,13.5705357 34.5232029,13.3518849 L34.5232029,10.4173611 L31.8065287,10.5652381 L33.2464741,9.78269841 L37.0590309,9.78269841 L36.5926979,10.2366865 C36.4670155,10.3448611 36.4499545,10.3816865 36.4146952,10.5266865 C36.3959281,10.6924008 36.3782985,11.2194643 36.3782985,11.4047421 L36.3782985,13.6240476 Z M84.5999773,12.8259722 L84.5999773,17.7715079 L83.6292084,17.7715079 L83.6292084,5.18700397 L84.5999773,5.18700397 L84.5999773,6.62031746 C85.2323703,5.69392857 86.3879663,4.95972222 87.7300955,4.95972222 C90.1373976,4.95972222 91.758758,6.80732143 91.758758,9.73206349 C91.758758,12.6372421 90.1373976,14.5233929 87.7300955,14.5233929 C86.4630346,14.5233929 85.3279117,13.8622619 84.5999773,12.8259722 Z M90.7157643,9.73206349 C90.7157643,7.52771825 89.5800728,5.84640873 87.5663103,5.84640873 C86.3157416,5.84640873 85.119768,6.84069444 84.5999773,7.70781746 L84.5999773,11.7361706 C85.119768,12.6050198 86.3157416,13.6355556 87.5663103,13.6355556 C89.5800728,13.6355556 90.7157643,11.9398611 90.7157643,9.73206349 Z M93.0843949,1.71218254 L94.0545951,1.71218254 L94.0545951,14.2966865 L93.0843949,14.2966865 L93.0843949,1.71218254 Z M104.947452,16.9578968 C105.155027,17.0516865 105.509327,17.1092262 105.733963,17.1092262 C106.327684,17.1092262 106.741128,16.8635317 107.112489,15.9958333 L107.820519,14.3726389 L103.996588,5.18700397 L105.07939,5.18700397 L108.359645,13.1470437 L111.608053,5.18700397 L112.70621,5.18700397 L108.042311,16.3002183 C107.558348,17.4452579 106.796861,17.9959127 105.751024,17.9959127 C105.437102,17.9959127 105.023089,17.9395238 104.780823,17.8641468 L104.947452,16.9578968 Z M102.11192,14.2696429 C102.047088,13.95375 101.99818,13.6752579 101.962352,13.4427976 C101.93278,13.2109127 101.915719,12.9738492 101.915719,12.7327579 C101.58303,13.2270238 101.111579,13.6384325 100.509327,13.962381 C99.9065059,14.288631 99.3338262,14.4485913 98.5484531,14.4485913 C97.602707,14.4485913 96.8685168,14.213254 96.3447452,13.7356746 C95.8226797,13.2586706 95.5599409,12.6125 95.5599409,11.7948611 C95.5599409,10.978373 95.9404004,10.3155159 96.6990446,9.80859127 C97.4576888,9.29936508 98.4381256,9.04619048 99.6517288,9.04619048 L101.915719,9.04619048 L101.915719,7.91438492 C101.915719,7.26246032 101.696201,6.74978175 101.257734,6.3780754 C100.817561,6.00579365 100.199955,5.81763889 99.3992266,5.81763889 C98.6673112,5.81763889 98.0735896,5.98968254 97.6214741,6.32456349 C97.1733394,6.66634921 96.947566,7.08984127 96.947566,7.60021825 L95.9540491,7.60021825 L95.933576,7.55130952 C95.897748,6.86313492 96.2088262,6.25954365 96.8702229,5.73823413 C97.5287762,5.2175 98.3914923,4.95569444 99.453253,4.95569444 C100.511601,4.95569444 101.368062,5.21347222 102.013535,5.72787698 C102.658439,6.23710317 102.982029,6.97303571 102.982029,7.93509921 L102.982029,12.4289484 C102.982029,12.751746 102.997384,13.0636111 103.037193,13.3674206 C103.078139,13.6718056 103.14354,13.9756151 103.230551,14.2696429 L102.11192,14.2696429 Z M98.6673112,13.5538492 C99.4919245,13.5538492 100.084509,13.3674206 100.690173,12.9985913 C101.291856,12.6320635 101.701319,12.1539087 101.915719,11.5750595 L101.915719,9.82585317 L99.6409236,9.82585317 C98.7719518,9.82585317 98.0525478,10.0203373 97.4866924,10.4127579 C96.9196997,10.8040278 96.6325068,11.2775794 96.6325068,11.8282341 C96.6325068,12.3478175 96.8144904,12.763254 97.1761829,13.077996 C97.5390127,13.3961905 98.0349181,13.5538492 98.6673112,13.5538492 L98.6673112,13.5538492 Z" id="Fill-1"></path>
                            <path d="M0.515795971,17.5720598 C0.203362321,17.4879029 0,17.1777119 0,16.6977052 L0,0.853391953 C0,0.408832654 0.172189858,0.1090098 0.445144053,3.01980663e-14 L0.445144053,3.01980663e-14 L8.23136573,8.82981066 L0.515795971,17.5720598 L0.515795971,17.5720598 Z M1.58762534,17.2357358 L10.959779,11.9239137 L8.67705774,9.33523887 L1.58762534,17.2357358 L1.58762534,17.2357358 Z M11.0243165,5.66521335 L1.78277389,0.426199842 L8.69057111,8.30950068 L11.0243165,5.66521335 L11.0243165,5.66521335 Z M11.6513476,6.02067617 L15.2716751,8.07303319 C15.9571408,8.46162241 15.9634094,9.08802398 15.2716751,9.48007575 L11.5597569,11.5838664 L9.13864202,8.82084716 L11.6513476,6.02067617 L11.6513476,6.02067617 Z" id="google-play"></path>
                        </g>
                    </g>
                </g>
            </g>
        </g>
    </g>
</svg>