<svg width="30" height="28" viewBox="0 0 30 28" xmlns="http://www.w3.org/2000/svg"><title>clock</title><g fill="#F06617" fill-rule="evenodd"><path d="M14.737 28C7.424 28 1.474 22.05 1.474 14.737c0-7.314 5.95-13.263 13.263-13.263C22.049 1.474 28 7.423 28 14.737S22.05 28 14.737 28zm0-23.579C9.048 4.421 4.42 9.048 4.42 14.737c0 5.688 4.627 10.316 10.316 10.316 5.688 0 10.316-4.628 10.316-10.316 0-5.689-4.628-10.316-10.316-10.316zM28.208 7.513a4.406 4.406 0 0 0 1.266-3.092A4.42 4.42 0 0 0 25.053 0a4.404 4.404 0 0 0-3.094 1.267l6.249 6.246zM1.266 7.513A4.406 4.406 0 0 1 0 4.42 4.42 4.42 0 0 1 4.421 0c1.204 0 2.296.485 3.093 1.267L1.266 7.513z"/><path d="M18.116 20.2l-4.421-4.421a1.472 1.472 0 0 1-.432-1.042V7.368h2.948v6.759l3.989 3.989-2.084 2.084z"/></g></svg>