<svg width="28" height="28" viewBox="0 0 28 28" xmlns="http://www.w3.org/2000/svg"><title>info</title><g fill="#F06617" fill-rule="evenodd"><path d="M25.667 14c0-6.443-5.224-11.667-11.667-11.667S2.333 7.557 2.333 14 7.557 25.667 14 25.667 25.667 20.443 25.667 14zM0 14C0 6.268 6.268 0 14 0s14 6.268 14 14-6.268 14-14 14S0 21.732 0 14z"/><path d="M15.667 17.714v-4.571c0-.631-.522-1.143-1.167-1.143h-2.333v2.286h1.166v3.428H11V20h7v-2.286h-2.333z"/><ellipse cx="14.5" cy="9.5" rx="1.5" ry="1.5"/></g></svg>