<svg width="28" height="31" viewBox="0 0 28 31" xmlns="http://www.w3.org/2000/svg"><title>performance-future</title><path d="M22.48 7.937l-1.97 2.052a1.634 1.634 0 0 0 0 2.245c.595.62 1.56.62 2.155 0l4.571-4.762c.298-.31.447-.717.447-1.123s-.15-.812-.447-1.122L22.665.465a1.481 1.481 0 0 0-2.155 0 1.634 1.634 0 0 0 0 2.245l1.97 2.052H7.873c-.901 0-2.146.216-3.424.882C2.235 6.797.863 8.94.863 12.064c0 3.123 1.372 5.266 3.586 6.42 1.278.665 2.523.881 3.424.881h9.143c.092 0 .31.016.607.068a5.023 5.023 0 0 1 1.454.479c1.215.633 1.9 1.704 1.9 3.58 0 1.877-.685 2.947-1.9 3.58a5.023 5.023 0 0 1-1.454.48 4.074 4.074 0 0 1-.607.067H6.044c-.841 0-1.523.71-1.523 1.587s.682 1.588 1.523 1.588h10.972c.901 0 2.146-.216 3.424-.882 2.214-1.153 3.585-3.296 3.585-6.42 0-3.123-1.371-5.267-3.585-6.42-1.278-.665-2.523-.882-3.424-.882H7.873c-.092 0-.31-.016-.607-.067a5.023 5.023 0 0 1-1.454-.48c-1.215-.632-1.9-1.703-1.9-3.58 0-1.876.685-2.947 1.9-3.58a5.023 5.023 0 0 1 1.454-.479c.297-.051.515-.067.607-.067H22.48z" fill="#F06617" fill-rule="evenodd"/></svg>