<svg width="38" height="21" viewBox="0 0 38 21" xmlns="http://www.w3.org/2000/svg"><title>performance</title><path d="M25.744 12.518c.243.452.381.97.381 1.52 0 1.765-1.418 3.196-3.167 3.196-1.749 0-3.166-1.431-3.166-3.196 0-.593.16-1.148.438-1.623L15.86 8.003a3.13 3.13 0 0 1-1.609.443 3.13 3.13 0 0 1-1.41-.334l-6.275 7.306c.353.516.56 1.141.56 1.816 0 1.765-1.418 3.195-3.167 3.195C2.21 20.43.792 19 .792 17.234s1.417-3.196 3.166-3.196c.507 0 .986.12 1.41.334l6.275-7.307a3.201 3.201 0 0 1-.56-1.815c0-1.765 1.418-3.196 3.167-3.196 1.749 0 3.167 1.431 3.167 3.196 0 .593-.16 1.148-.439 1.623l4.372 4.412a3.13 3.13 0 0 1 1.608-.443c.63 0 1.216.186 1.709.505l6.589-6.174a3.205 3.205 0 0 1-.381-1.52c0-1.766 1.418-3.196 3.167-3.196 1.749 0 3.166 1.43 3.166 3.195s-1.417 3.196-3.166 3.196c-.63 0-1.216-.185-1.709-.505l-6.589 6.175z" fill="#F06617" fill-rule="evenodd"/></svg>