<svg width="27" height="32" viewBox="0 0 27 32" xmlns="http://www.w3.org/2000/svg"><title>past-performance</title><path d="M5.475 23.579l1.944-2.074a1.68 1.68 0 0 0 0-2.268 1.438 1.438 0 0 0-2.126 0L.78 24.049c-.293.313-.44.723-.44 1.134 0 .41.147.821.44 1.134l4.512 4.812c.587.627 1.539.627 2.126 0a1.68 1.68 0 0 0 0-2.268l-1.944-2.074H19.89c.889 0 2.118-.218 3.379-.891 2.184-1.165 3.538-3.331 3.538-6.487 0-3.157-1.354-5.323-3.538-6.488-1.261-.673-2.49-.89-3.38-.89h-9.022a3.93 3.93 0 0 1-.598-.07 4.876 4.876 0 0 1-1.436-.483c-1.2-.64-1.876-1.722-1.876-3.618 0-1.897.677-2.979 1.876-3.618.446-.238.94-.396 1.436-.484a3.93 3.93 0 0 1 .598-.069h10.827c.83 0 1.504-.718 1.504-1.604 0-.886-.673-1.604-1.504-1.604H10.867c-.89 0-2.118.219-3.38.891C5.305 2.537 3.95 4.703 3.95 7.86c0 3.156 1.354 5.322 3.538 6.487 1.261.673 2.49.891 3.38.891h9.022c.09 0 .306.016.598.068.496.089.99.247 1.436.485 1.2.64 1.875 1.721 1.875 3.618 0 1.896-.676 2.978-1.875 3.617-.446.238-.94.396-1.436.485a3.93 3.93 0 0 1-.598.068H5.475z" fill="#F06617" fill-rule="evenodd"/></svg>