<svg width="31" height="30" viewBox="0 0 31 30" xmlns="http://www.w3.org/2000/svg"><title>zoom-in</title><g fill="#F06617" fill-rule="evenodd"><path d="M21.581 11.96c0-5.285-4.294-9.568-9.592-9.568-5.297 0-9.591 4.283-9.591 9.567s4.294 9.568 9.591 9.568c5.298 0 9.592-4.284 9.592-9.568zM0 11.96C0 5.353 5.368 0 11.99 0c6.621 0 11.989 5.354 11.989 11.96 0 6.604-5.368 11.959-11.99 11.959C5.368 23.919 0 18.564 0 11.959z"/><path d="M28.589 29.008c.5.433 1.257.38 1.691-.12.434-.5.38-1.254-.12-1.687l-8.993-7.774a1.201 1.201 0 0 0-1.691.12c-.434.5-.38 1.255.12 1.688l8.993 7.773zM10.79 15.547c0 .66.537 1.196 1.2 1.196.662 0 1.198-.535 1.198-1.196V8.372c0-.66-.536-1.196-1.199-1.196-.662 0-1.199.535-1.199 1.196v7.175z"/><path d="M15.586 13.155c.662 0 1.2-.535 1.2-1.196 0-.66-.538-1.195-1.2-1.195H8.393c-.663 0-1.2.535-1.2 1.195 0 .661.537 1.196 1.2 1.196h7.193z"/></g></svg>