<?xml version="1.0" encoding="UTF-8" standalone="no"?>
<svg width="47px" height="56px" viewBox="0 0 47 56" version="1.1" xmlns="http://www.w3.org/2000/svg" xmlns:xlink="http://www.w3.org/1999/xlink">
    <!-- Generator: Sketch 40.2 (33826) - http://www.bohemiancoding.com/sketch -->
    <title>36</title>
    <desc>Created with Sketch.</desc>
    <defs></defs>
    <g id="set-up" stroke="none" stroke-width="1" fill="none" fill-rule="evenodd" stroke-linecap="round" stroke-linejoin="round">
        <g id="00-tiller-setup-intro" transform="translate(-593.000000, -431.000000)" stroke="#FFFFFF" stroke-width="2">
            <g id="36" transform="translate(594.000000, 432.000000)">
                <path d="M37.6603043,39.218087 C37.9807826,38.8283478 38.3024348,38.433913 38.583,38.0124783 C38.8635652,37.5933913 39.123,37.1508261 39.3824348,36.7129565 C42.4592609,32.8296522 44.3116957,27.8416957 44.3116957,22.3947391 C44.3116957,10.0263913 34.7583913,0 22.9758261,0 C16.2986087,0 10.3492174,3.22708696 6.43656522,8.26669565 C6.30273913,8.40286957 6.17713043,8.5413913 6.06795652,8.69517391 C5.97991304,8.8196087 5.89656522,8.96047826 5.8143913,9.10604348 C4.4456087,11.0488696 3.08973913,15.7715217 3.32452174,15.8771739 C3.26113043,16.3150435 3.21652174,16.7552609 3.21652174,17.184913 C3.22004348,18.0841304 3.1683913,18.995087 3.21652174,19.8919565 C3.26465217,20.7970435 3.60743478,21.4168696 3.78,22.3043478 C4.10869565,23.9748261 3.75534783,25.6300435 3.22004348,27.1256087 C2.71408696,28.5378261 2.22691304,29.9864348 1.65286957,31.3916087 C1.18565217,32.5338261 -0.568173913,34.0587391 0.820565217,34.9462174 C1.49673913,35.3770435 2.81386957,35.37 3.21769565,35.9663478 C3.65908696,36.6155217 3.08504348,37.4384348 3.30221739,38.0476957 C3.5006087,38.6041304 3.8973913,38.2566522 4.17795652,38.5583478 C4.64752174,39.0584348 4.2213913,39.0772174 4.05117391,39.4176522 C3.49708696,40.5481304 3.73891304,40.4096087 4.41273913,41.3757391 C5.3823913,42.7715217 3.89504348,44.4643043 4.56065217,45.8636087 C5.35186957,47.5211739 7.83,47.4495652 9.38073913,47.6127391 C11.5618696,47.8381304 13.8545217,47.7031304 16.065,47.6984348 L18.993913,54 L43.2363913,54 C43.2363913,54 36.9324783,46.8931304 37.6603043,39.218087 L37.6603043,39.218087 Z" id="Shape"></path>
            </g>
        </g>
    </g>
</svg>