<?xml version="1.0" encoding="UTF-8" standalone="no"?>
<svg width="28px" height="23px" viewBox="0 0 28 23" version="1.1" xmlns="http://www.w3.org/2000/svg" xmlns:xlink="http://www.w3.org/1999/xlink">
    <!-- Generator: Sketch 39.1 (31720) - http://www.bohemiancoding.com/sketch -->
    <title>arrow-right</title>
    <desc>Created with Sketch.</desc>
    <defs></defs>
    <g id="icons" stroke="none" stroke-width="1" fill="none" fill-rule="evenodd">
        <g transform="translate(-52.000000, -104.000000)" id="arrow-right" fill="#F06617">
            <g transform="translate(52.000000, 103.000000)">
                <path d="M24.4276047,14.7058824 C25.6458799,14.7058824 26.633487,13.7182752 26.633487,12.5 C26.633487,11.2817248 25.6458799,10.2941176 24.4276047,10.2941176 L2.20588235,10.2941176 C0.987607169,10.2941176 0,11.2817248 0,12.5 C0,13.7182752 0.987607169,14.7058824 2.20588235,14.7058824 L24.4276047,14.7058824 Z" id="Line"></path>
                <path d="M22.6157054,12.5 L15.2302607,5.11455534 C14.3688101,4.2531047 14.3688101,2.85641724 15.2302607,1.9949666 C16.0917114,1.13351596 17.4883988,1.13351596 18.3498495,1.9949666 L27.2950885,10.9402056 C27.7258138,11.370931 27.9411765,11.9354655 27.9411765,12.5 C27.9411765,13.0645345 27.7258138,13.629069 27.2950885,14.0597944 L18.3498495,23.0050334 C17.4883988,23.866484 16.0917114,23.866484 15.2302607,23.0050334 C14.3688101,22.1435828 14.3688101,20.7468953 15.2302607,19.8854447 L22.6157054,12.5 Z" id="Combined-Shape"></path>
            </g>
        </g>
    </g>
</svg>