<?xml version="1.0" encoding="UTF-8" standalone="no"?>
<svg width="30px" height="28px" viewBox="0 0 30 28" version="1.1" xmlns="http://www.w3.org/2000/svg" xmlns:xlink="http://www.w3.org/1999/xlink">
    <!-- Generator: Sketch 39.1 (31720) - http://www.bohemiancoding.com/sketch -->
    <title>clock</title>
    <desc>Created with Sketch.</desc>
    <defs></defs>
    <g id="icons" stroke="none" stroke-width="1" fill="none" fill-rule="evenodd">
        <g transform="translate(-54.000000, -169.000000)" id="clock" fill="#F06617">
            <g transform="translate(54.000000, 169.000000)">
                <path d="M14.7368421,28 C7.42442105,28 1.47368421,22.0507368 1.47368421,14.7368421 C1.47368421,7.42294737 7.42442105,1.47368421 14.7368421,1.47368421 C22.0492632,1.47368421 28,7.42294737 28,14.7368421 C28,22.0507368 22.0492632,28 14.7368421,28 L14.7368421,28 Z M14.7368421,4.42105263 C9.04842105,4.42105263 4.42105263,9.04842105 4.42105263,14.7368421 C4.42105263,20.4252632 9.04842105,25.0526316 14.7368421,25.0526316 C20.4252632,25.0526316 25.0526316,20.4252632 25.0526316,14.7368421 C25.0526316,9.04842105 20.4252632,4.42105263 14.7368421,4.42105263 L14.7368421,4.42105263 Z" id="Shape"></path>
                <path d="M28.2077895,7.51284211 C28.9888421,6.71557895 29.4736842,5.62505263 29.4736842,4.42105263 C29.4736842,1.97915789 27.4945263,0 25.0526316,0 C23.8486316,0 22.7566316,0.484842105 21.9593684,1.26736842 L28.2077895,7.51284211 L28.2077895,7.51284211 Z" id="Shape"></path>
                <path d="M1.26589474,7.51284211 C0.484842105,6.71557895 0,5.62505263 0,4.42105263 C0,1.97915789 1.97915789,0 4.42105263,0 C5.62505263,0 6.71705263,0.484842105 7.51431579,1.26736842 L1.26589474,7.51284211 L1.26589474,7.51284211 Z" id="Shape"></path>
                <path d="M18.116,20.1997895 L13.6949474,15.7787368 C13.4178947,15.5016842 13.2631579,15.1273684 13.2631579,14.7368421 L13.2631579,7.36842105 L16.2105263,7.36842105 L16.2105263,14.1267368 L20.1997895,18.116 L18.116,20.1997895 L18.116,20.1997895 Z" id="Shape"></path>
            </g>
        </g>
    </g>
</svg>