<?xml version="1.0" encoding="UTF-8" standalone="no"?>
<svg width="28px" height="28px" viewBox="0 0 28 28" version="1.1" xmlns="http://www.w3.org/2000/svg" xmlns:xlink="http://www.w3.org/1999/xlink">
    <!-- Generator: Sketch 39.1 (31720) - http://www.bohemiancoding.com/sketch -->
    <title>info</title>
    <desc>Created with Sketch.</desc>
    <defs></defs>
    <g id="icons" stroke="none" stroke-width="1" fill="none" fill-rule="evenodd">
        <g transform="translate(-128.000000, -36.000000)" id="info" fill="#F06617">
            <g transform="translate(128.000000, 36.000000)">
                <path d="M25.6666667,14 C25.6666667,7.55667792 20.4433221,2.33333333 14,2.33333333 C7.55667792,2.33333333 2.33333333,7.55667792 2.33333333,14 C2.33333333,20.4433221 7.55667792,25.6666667 14,25.6666667 C20.4433221,25.6666667 25.6666667,20.4433221 25.6666667,14 Z M0,14 C0,6.2680135 6.2680135,0 14,0 C21.7319865,0 28,6.2680135 28,14 C28,21.7319865 21.7319865,28 14,28 C6.2680135,28 0,21.7319865 0,14 Z" id="Oval-6"></path>
                <path d="M15.6666667,17.7142857 L15.6666667,13.1428571 C15.6666667,12.512 15.1451667,12 14.5,12 L12.1666667,12 L12.1666667,14.2857143 L13.3333333,14.2857143 L13.3333333,17.7142857 L11,17.7142857 L11,20 L18,20 L18,17.7142857 L15.6666667,17.7142857 L15.6666667,17.7142857 Z" id="Shape"></path>
                <ellipse id="Oval" cx="14.5" cy="9.5" rx="1.5" ry="1.5"></ellipse>
            </g>
        </g>
    </g>
</svg>