<?xml version="1.0" encoding="UTF-8" standalone="no"?>
<svg width="30px" height="19px" viewBox="0 0 30 19" version="1.1" xmlns="http://www.w3.org/2000/svg" xmlns:xlink="http://www.w3.org/1999/xlink">
    <!-- Generator: Sketch 39.1 (31720) - http://www.bohemiancoding.com/sketch -->
    <title>menu</title>
    <desc>Created with Sketch.</desc>
    <defs></defs>
    <g id="icons" stroke="none" stroke-width="1" fill="none" fill-rule="evenodd">
        <g transform="translate(-49.000000, -40.000000)" id="menu" fill="#F06617">
            <g transform="translate(49.000000, 40.000000)">
                <g id="icon-menu" transform="translate(15.041667, 9.500000) scale(-1, 1) translate(-15.041667, -9.500000) ">
                    <path d="M28.163995,3.16666667 C29.0384459,3.16666667 29.7473284,2.45778419 29.7473284,1.58333333 C29.7473284,0.708882479 29.0384459,0 28.163995,0 L1.9284188,0 C1.05396795,0 0.34508547,0.708882479 0.34508547,1.58333333 C0.34508547,2.45778419 1.05396795,3.16666667 1.9284188,3.16666667 L28.163995,3.16666667 Z" id="Line"></path>
                    <path d="M21.3484408,11.0833333 C22.2228916,11.0833333 22.9317741,10.3744509 22.9317741,9.5 C22.9317741,8.62554915 22.2228916,7.91666667 21.3484408,7.91666667 L1.83993535,7.91666667 C0.965484496,7.91666667 0.256602016,8.62554915 0.256602016,9.5 C0.256602016,10.3744509 0.965484496,11.0833333 1.83993535,11.0833333 L21.3484408,11.0833333 Z" id="Line-Copy"></path>
                    <path d="M14.5328865,19 C15.4073373,19 16.1162198,18.2911175 16.1162198,17.4166667 C16.1162198,16.5422158 15.4073373,15.8333333 14.5328865,15.8333333 L1.7514519,15.8333333 C0.877001042,15.8333333 0.168118562,16.5422158 0.168118562,17.4166667 C0.168118562,18.2911175 0.877001042,19 1.7514519,19 L14.5328865,19 Z" id="Line-Copy-2"></path>
                </g>
            </g>
        </g>
    </g>
</svg>