<?xml version="1.0" encoding="UTF-8" standalone="no"?>
<svg width="27px" height="32px" viewBox="0 0 27 32" version="1.1" xmlns="http://www.w3.org/2000/svg" xmlns:xlink="http://www.w3.org/1999/xlink">
    <!-- Generator: Sketch 39.1 (31720) - http://www.bohemiancoding.com/sketch -->
    <title>past-performance</title>
    <desc>Created with Sketch.</desc>
    <defs></defs>
    <g id="icons" stroke="none" stroke-width="1" fill="none" fill-rule="evenodd">
        <g transform="translate(-214.000000, -167.000000)" id="past-performance" fill="#F06617">
            <g transform="translate(214.000000, 167.000000)">
                <path d="M21.6728618,8.50125313 L19.7286615,10.5750668 C19.1414069,11.2014717 19.1414069,12.2170747 19.7286615,12.8434795 C20.3159161,13.4698844 21.2680438,13.4698844 21.8552984,12.8434795 L26.3665766,8.03144947 C26.6602039,7.71824703 26.8070175,7.30774507 26.8070175,6.89724311 C26.8070175,6.48674114 26.6602039,6.07623918 26.3665766,5.76303674 L21.8552984,0.951006667 C21.2680438,0.324601788 20.3159161,0.324601788 19.7286615,0.951006667 C19.1414069,1.57741155 19.1414069,2.59301452 19.7286615,3.2194194 L21.6728618,5.29323308 L7.25814536,5.29323308 C6.36884123,5.29323308 5.14023808,5.51165142 3.8788768,6.18437744 C1.69454797,7.34935281 0.34085213,9.51526616 0.34085213,12.6716792 C0.34085213,15.8280922 1.69454797,17.9940056 3.8788768,19.158981 C5.14023808,19.831707 6.36884123,20.0501253 7.25814536,20.0501253 L16.2807018,20.0501253 C16.3718203,20.0501253 16.5866719,20.066495 16.8793499,20.1185266 C17.3752924,20.2066941 17.8687173,20.3645901 18.314967,20.60259 C19.5140968,21.2421259 20.1904762,22.3243328 20.1904762,24.2205514 C20.1904762,26.1167699 19.5140968,27.1989769 18.314967,27.8385128 C17.8687173,28.0765126 17.3752924,28.2344086 16.8793499,28.3225762 C16.5866719,28.3746078 16.3718203,28.3909774 16.2807018,28.3909774 L5.45363409,28.3909774 C4.6231307,28.3909774 3.94987469,29.1091172 3.94987469,29.9949875 C3.94987469,30.8808577 4.6231307,31.5989975 5.45363409,31.5989975 L16.2807018,31.5989975 C17.1700059,31.5989975 18.398609,31.3805792 19.6599703,30.7078531 C21.8442991,29.5428778 23.197995,27.3769644 23.197995,24.2205514 C23.197995,21.0641383 21.8442991,18.898225 19.6599703,17.7332496 C18.398609,17.0605236 17.1700059,16.8421053 16.2807018,16.8421053 L7.25814536,16.8421053 C7.16702678,16.8421053 6.95217517,16.8257356 6.65949722,16.773704 C6.16355474,16.6855364 5.67012984,16.5276405 5.22388009,16.2896406 C4.02475027,15.6501047 3.34837093,14.5678977 3.34837093,12.6716792 C3.34837093,10.7754607 4.02475027,9.6932537 5.22388009,9.0537178 C5.67012984,8.81571793 6.16355474,8.65782197 6.65949722,8.56965441 C6.95217517,8.51762278 7.16702678,8.50125313 7.25814536,8.50125313 L21.6728618,8.50125313 Z" id="Combined-Shape" transform="translate(13.573935, 16.040100) rotate(-180.000000) translate(-13.573935, -16.040100) "></path>
            </g>
        </g>
    </g>
</svg>