<?xml version="1.0" encoding="UTF-8" standalone="no"?>
<svg width="38px" height="21px" viewBox="0 0 38 21" version="1.1" xmlns="http://www.w3.org/2000/svg" xmlns:xlink="http://www.w3.org/1999/xlink">
    <!-- Generator: Sketch 39.1 (31720) - http://www.bohemiancoding.com/sketch -->
    <title>performance</title>
    <desc>Created with Sketch.</desc>
    <defs></defs>
    <g id="icons" stroke="none" stroke-width="1" fill="none" fill-rule="evenodd">
        <g transform="translate(-50.000000, -241.000000)" id="performance" fill="#F06617">
            <g transform="translate(50.000000, 241.000000)">
                <path d="M25.7443106,12.5176146 C25.9871182,12.9697536 26.125,13.4876492 26.125,14.0380435 C26.125,15.8029534 24.707235,17.2336957 22.9583333,17.2336957 C21.2094316,17.2336957 19.7916667,15.8029534 19.7916667,14.0380435 C19.7916667,13.4454029 19.9515274,12.8904416 20.2301068,12.4146783 L15.8586408,8.00319888 C15.3871928,8.28432815 14.8372652,8.44565217 14.25,8.44565217 C13.7432911,8.44565217 13.264379,8.3255509 12.8396913,8.112018 L6.5648731,15.4184646 C6.91809806,15.9340192 7.125,16.559474 7.125,17.2336957 C7.125,18.9986056 5.70723504,20.4293478 3.95833333,20.4293478 C2.20943163,20.4293478 0.791666667,18.9986056 0.791666667,17.2336957 C0.791666667,15.4687857 2.20943163,14.0380435 3.95833333,14.0380435 C4.46504215,14.0380435 4.94395425,14.1581447 5.36864188,14.3716776 L11.6434601,7.06523087 C11.2902352,6.54967636 11.0833333,5.92422161 11.0833333,5.25 C11.0833333,3.48509004 12.5010983,2.05434783 14.25,2.05434783 C15.9989017,2.05434783 17.4166667,3.48509004 17.4166667,5.25 C17.4166667,5.84264058 17.2568059,6.39760191 16.9782266,6.87336522 L21.3496925,11.2848446 C21.8211405,11.0037153 22.3710682,10.8423913 22.9583333,10.8423913 C23.5875381,10.8423913 24.1738821,11.0275801 24.6667641,11.3468933 L31.2556894,5.17260278 C31.0128818,4.72046376 30.875,4.20256824 30.875,3.65217391 C30.875,1.88726395 32.292765,0.456521739 34.0416667,0.456521739 C35.7905684,0.456521739 37.2083333,1.88726395 37.2083333,3.65217391 C37.2083333,5.41708387 35.7905684,6.84782609 34.0416667,6.84782609 C33.4124619,6.84782609 32.8261179,6.66263731 32.3332359,6.34332414 L25.7443106,12.5176146 Z" id="Combined-Shape"></path>
            </g>
        </g>
    </g>
</svg>