<?xml version="1.0" encoding="UTF-8" standalone="no"?>
<svg width="28px" height="31px" viewBox="0 0 28 31" version="1.1" xmlns="http://www.w3.org/2000/svg" xmlns:xlink="http://www.w3.org/1999/xlink">
    <!-- Generator: Sketch 39.1 (31720) - http://www.bohemiancoding.com/sketch -->
    <title>performance-future</title>
    <desc>Created with Sketch.</desc>
    <defs></defs>
    <g id="icons" stroke="none" stroke-width="1" fill="none" fill-rule="evenodd">
        <g transform="translate(-134.000000, -167.000000)" id="performance-future" fill="#F06617">
            <g transform="translate(134.000000, 167.000000)">
                <path d="M22.4799285,7.93650794 L20.5098055,9.98871939 C19.9147209,10.6085992 19.9147209,11.613623 20.5098055,12.2335028 C21.1048902,12.8533827 22.069713,12.8533827 22.6647976,12.2335028 L27.2362262,7.47159807 C27.5337685,7.16165815 27.6825397,6.75543225 27.6825397,6.34920635 C27.6825397,5.94298045 27.5337685,5.53675455 27.2362262,5.22681463 L22.6647976,0.464909871 C22.069713,-0.154969957 21.1048902,-0.154969957 20.5098055,0.464909871 C19.9147209,1.0847897 19.9147209,2.08981348 20.5098055,2.7096933 L22.4799285,4.76190476 L7.87301587,4.76190476 C6.97185435,4.76190476 5.72686983,4.97804791 4.44869039,5.64376636 C2.23523718,6.79660658 0.863492063,8.93995833 0.863492063,12.0634921 C0.863492063,15.1870258 2.23523718,17.3303776 4.44869039,18.4832178 C5.72686983,19.1489362 6.97185435,19.3650794 7.87301587,19.3650794 L17.015873,19.3650794 C17.1082065,19.3650794 17.3259228,19.3812785 17.6225031,19.4327681 C18.1250582,19.5200173 18.6250621,19.6762685 19.0772618,19.9117892 C20.29238,20.5446633 20.9777778,21.6155972 20.9777778,23.4920635 C20.9777778,25.3685298 20.29238,26.4394637 19.0772618,27.0723378 C18.6250621,27.3078585 18.1250582,27.4641097 17.6225031,27.5513589 C17.3259228,27.6028485 17.1082065,27.6190476 17.015873,27.6190476 L6.04444444,27.6190476 C5.20286768,27.6190476 4.52063492,28.3297067 4.52063492,29.2063492 C4.52063492,30.0829917 5.20286768,30.7936508 6.04444444,30.7936508 L17.015873,30.7936508 C17.9170345,30.7936508 19.1620191,30.5775076 20.4401985,29.9117892 C22.6536517,28.758949 24.0253968,26.6155972 24.0253968,23.4920635 C24.0253968,20.3685298 22.6536517,18.225178 20.4401985,17.0723378 C19.1620191,16.4066193 17.9170345,16.1904762 17.015873,16.1904762 L7.87301587,16.1904762 C7.78068238,16.1904762 7.56296608,16.1742771 7.26638576,16.1227874 C6.76383071,16.0355383 6.26382681,15.8792871 5.81162707,15.6437664 C4.59650885,15.0108923 3.91111111,13.9399583 3.91111111,12.0634921 C3.91111111,10.1870258 4.59650885,9.11609184 5.81162707,8.48321776 C6.26382681,8.24769706 6.76383071,8.09144585 7.26638576,8.0041967 C7.56296608,7.95270707 7.78068238,7.93650794 7.87301587,7.93650794 L22.4799285,7.93650794 Z" id="icon-arrow-future"></path>
            </g>
        </g>
    </g>
</svg>