<?xml version="1.0" encoding="UTF-8" standalone="no"?>
<svg width="25px" height="31px" viewBox="0 0 25 31" version="1.1" xmlns="http://www.w3.org/2000/svg" xmlns:xlink="http://www.w3.org/1999/xlink">
    <!-- Generator: Sketch 39.1 (31720) - http://www.bohemiancoding.com/sketch -->
    <title>portfolio</title>
    <desc>Created with Sketch.</desc>
    <defs></defs>
    <g id="icons" stroke="none" stroke-width="1" fill="none" fill-rule="evenodd">
        <g transform="translate(-292.000000, -167.000000)" id="portfolio" fill="#F06617">
            <g transform="translate(292.000000, 167.000000)">
                <path d="M15.2615385,31.0153846 C16.8929026,31.0153846 18.2153846,29.6929026 18.2153846,28.0615385 C18.2153846,26.4301743 16.8929026,25.1076923 15.2615385,25.1076923 C13.6301743,25.1076923 12.3076923,26.4301743 12.3076923,28.0615385 C12.3076923,29.6929026 13.6301743,31.0153846 15.2615385,31.0153846 Z M4.92307692,25.1076923 C7.3701232,25.1076923 9.35384615,23.1239694 9.35384615,20.6769231 C9.35384615,18.2298768 7.3701232,16.2461538 4.92307692,16.2461538 C2.47603065,16.2461538 0.492307692,18.2298768 0.492307692,20.6769231 C0.492307692,23.1239694 2.47603065,25.1076923 4.92307692,25.1076923 Z M16,16.2461538 C20.4862515,16.2461538 24.1230769,12.6093284 24.1230769,8.12307692 C24.1230769,3.63682542 20.4862515,0 16,0 C11.5137485,0 7.87692308,3.63682542 7.87692308,8.12307692 C7.87692308,12.6093284 11.5137485,16.2461538 16,16.2461538 Z" id="Combined-Shape"></path>
            </g>
        </g>
    </g>
</svg>