<?xml version="1.0" encoding="UTF-8" standalone="no"?>
<svg width="31px" height="30px" viewBox="0 0 31 30" version="1.1" xmlns="http://www.w3.org/2000/svg" xmlns:xlink="http://www.w3.org/1999/xlink">
    <!-- Generator: Sketch 39.1 (31720) - http://www.bohemiancoding.com/sketch -->
    <title>zoom-out</title>
    <desc>Created with Sketch.</desc>
    <defs></defs>
    <g id="icons" stroke="none" stroke-width="1" fill="none" fill-rule="evenodd">
        <g transform="translate(-284.000000, -35.000000)" id="zoom-out" fill="#F06617">
            <g transform="translate(284.000000, 35.000000)">
                <g id="lupe">
                    <path d="M21.5809795,11.9594595 C21.5809795,6.6754378 17.2866979,2.39189189 11.989433,2.39189189 C6.69216822,2.39189189 2.39788661,6.6754378 2.39788661,11.9594595 C2.39788661,17.2434811 6.69216822,21.527027 11.989433,21.527027 C17.2866979,21.527027 21.5809795,17.2434811 21.5809795,11.9594595 Z M0,11.9594595 C0,5.35443238 5.36785201,0 11.989433,0 C18.6110141,0 23.9788661,5.35443238 23.9788661,11.9594595 C23.9788661,18.5644865 18.6110141,23.9189189 11.989433,23.9189189 C5.36785201,23.9189189 0,18.5644865 0,11.9594595 Z" id="Oval-7"></path>
                    <path d="M28.5888864,29.008493 C29.089272,29.4410764 29.8464718,29.3871259 30.2801393,28.8879913 C30.7138069,28.3888566 30.6597212,27.6335498 30.1593355,27.2009664 L21.1672608,19.4273178 C20.6668751,18.9947344 19.9096754,19.0486849 19.4760078,19.5478196 C19.0423402,20.0469542 19.0964259,20.802261 19.5968116,21.2348444 L28.5888864,29.008493 Z" id="Line"></path>
                    <path d="M15.586263,13.1554054 C16.2484211,13.1554054 16.7852063,12.6199622 16.7852063,11.9594595 C16.7852063,11.2989568 16.2484211,10.7635135 15.586263,10.7635135 L8.39260313,10.7635135 C7.73044503,10.7635135 7.19365983,11.2989568 7.19365983,11.9594595 C7.19365983,12.6199622 7.73044503,13.1554054 8.39260313,13.1554054 L15.586263,13.1554054 Z" id="Line-Copy-3"></path>
                </g>
            </g>
        </g>
    </g>
</svg>