<?xml version="1.0" encoding="UTF-8" standalone="no"?>
<svg width="799px" height="224px" viewBox="0 0 799 224" version="1.1" xmlns="http://www.w3.org/2000/svg" xmlns:xlink="http://www.w3.org/1999/xlink">
    <defs></defs>
    <g id="profile" stroke="none" stroke-width="1" fill="none" fill-rule="evenodd" stroke-linecap="round" fill-opacity="0.2" stroke-linejoin="round">
        <g id="16-desktop-profile-landing-2.1.1" transform="translate(-981.000000, -713.000000)" stroke="#35DB9B" fill="#35DB9B">
            <g id="Group-3" transform="translate(140.000000, 166.000000)">
                <g id="graph-earinings" transform="translate(841.025641, 440.000000)">
                    <path d="M-1.17498454,332.09224 L-2.8034188,233.076967 C-2.8034188,233.076967 20.2573611,224.423783 59.4804678,224.423783 C98.7035745,224.423783 89.5513554,212.297046 121.764354,212.297046 C153.977353,212.297046 158.920389,202.386453 184.048241,202.864614 C209.176093,203.342775 213.802344,220.532666 246.332128,220.921521 C278.861912,221.310376 289.105346,207.924073 308.616014,207.924073 C336.364472,207.818867 342.033865,183.066254 370.899901,182.734846 C421.71336,182.734846 397.540602,175.482387 433.183788,175.482387 C454.657885,175.482387 466.613786,150.832391 495.467674,150.832391 C524.321563,150.832391 533.458188,146.210779 557.751561,146.067918 C593.949314,146.067918 579.470764,137.591884 620.035447,137.468208 C657.050277,137.097178 651.082967,136.239018 682.319334,136.239018 C713.555701,136.239018 708.122971,112.711206 744.603221,112.711206 C781.08347,112.711206 806.887107,105.830935 806.887107,105.830935 L806.887107,332.09224"></path>
                </g>
            </g>
        </g>
    </g>
</svg>