<?xml version="1.0" encoding="UTF-8" standalone="no"?>
<svg width="798px" height="165px" viewBox="0 0 798 165" version="1.1" xmlns="http://www.w3.org/2000/svg" xmlns:xlink="http://www.w3.org/1999/xlink">
    <defs></defs>
    <g id="profile" stroke="none" stroke-width="1" fill="none" fill-rule="evenodd">
        <g id="16-desktop-profile-landing-2.1.1" transform="translate(-141.000000, -717.000000)">
            <g id="Group-3" transform="translate(140.000000, 166.000000)">
                <g id="performance" transform="translate(0.000000, 440.000000)">
                    <g id="graph-total" transform="translate(1.000000, 112.000000)">
                        <g id="yellow">
                            <path d="M0.299860572,106.670263 C0.299860572,106.670263 22.9814954,101.301756 61.5597303,101.301756 C100.137965,101.301756 91.1362188,93.7782292 122.8196,93.7782292 C154.502981,93.7782292 159.364748,130.210261 184.07947,130.506916 C208.794192,130.803571 213.344381,162.758643 245.339339,162.999892 C277.334297,163.241141 287.409318,91.0652007 306.599209,91.0652007 C333.891451,90.9999302 339.467633,75.6432059 367.859079,75.4375976 C417.837108,75.4375976 394.061777,70.9381126 429.118949,70.9381126 C450.239988,70.9381126 461.99932,55.645053 490.378818,55.645053 C518.758317,55.645053 527.744726,31.4874442 551.638688,31.3988121 C587.24131,31.3988121 573.000803,4.84988839 612.898558,4.77315848 C649.304822,4.54296875 643.435621,25.3008814 674.158427,25.3008814 C704.881234,25.3008814 699.537824,0.0588727679 735.418297,0.0588727679 C771.29877,0.0588727679 796.678167,6.4354573 796.678167,6.4354573" id="purple-line" stroke="#FFAA19" stroke-linecap="round" stroke-linejoin="round"></path>
                            <path d="M290.338539,107.78551 C290.338539,107.78551 300.604919,91.0652007 306.599209,91.0652007 C333.891451,90.9999302 339.467633,75.6432059 367.859079,75.4375976 C417.837108,75.4375976 394.061777,70.9381126 429.118949,70.9381126 C450.239988,70.9381126 461.99932,55.645053 490.378818,55.645053 C518.758317,55.645053 527.744726,31.4874442 551.638688,31.3988121 C587.24131,31.3988121 563.934827,4.77315848 612.898558,4.77315848 C661.862289,4.77315848 629.740819,23.7294529 674.158427,23.7294529 C707.11557,24.983817 699.537824,0.0588727679 735.418297,0.0588727679 C771.29877,0.0588727679 796.678167,6.4354573 796.678167,6.4354573 L797.899191,106.767284 L290.338539,107.78551 Z" id="purple-line-copy-3" fill-opacity="0.200000018" fill="#FFAA19"></path>
                            <path d="M152.497991,108.190281 C152.497991,108.190281 169.979577,130.337673 184.07947,130.506916 C208.794192,130.803571 213.344381,162.758643 245.339339,162.999892 C267.188756,163.164642 290.103975,108.227043 290.103975,108.227043 L152.497991,108.190281 Z" id="purple-line-copy-2" fill-opacity="0.200000018" fill="#FFAA19"></path>
                            <path d="M0.299860572,106.670263 C0.299860572,106.670263 22.9814954,101.301756 61.5597303,101.301756 C100.137965,101.301756 91.1362188,93.7782292 122.8196,93.7782292 C136.189319,93.7782292 152.107823,107.787442 152.107823,107.787442 L0.299860572,106.670263 Z" id="purple-line-copy" fill-opacity="0.200000018" fill="#FFAA19"></path>
                        </g>
                        <g id="blue-line" transform="translate(0.000000, 28.285714)">
                            <path d="M0.299860572,78.3845488 C0.299860572,78.3845488 22.9814954,57.3017564 61.5597303,57.3017564 C100.137965,57.3017564 91.1362188,2.63537204 122.8196,2.63537204 C154.502981,2.63537204 159.364748,51.6388328 184.07947,51.9354878 C208.794192,52.2321429 213.344381,8.75864322 245.339339,8.9998922 C277.334297,9.24114118 287.409318,34.4937722 306.599209,34.4937722 C333.891451,34.4285017 339.467633,15.9289202 367.859079,15.7233119 C404.589546,15.5445033 407.783078,78.2929069 407.783078,78.2929069 L0.299860572,78.3845488 Z" id="color-blue-1" fill-opacity="0.2" fill="#47A2DF"></path>
                            <path d="M408.123077,79.7151786 C408.123077,79.7151786 412.366678,105.509541 429.118949,105.509541 C450.239988,105.509541 461.99932,90.2164816 490.378818,90.2164816 C518.758317,90.2164816 527.744726,113.20173 551.638688,113.113098 C567.757298,114.773158 573.292505,79.7756808 573.292505,79.7756808 L408.123077,79.7151786 Z" id="color-blue-2" fill-opacity="0.2" fill="#47A2DF"></path>
                            <path d="M573.276978,79.8548781 C573.276978,79.8548781 578.46903,0.0588727679 612.898558,0.0588727679 C662.986405,1.99860491 640.823783,77.1580243 674.158427,77.1580243 C679.40791,77.1580243 687.167428,79.5580845 687.167428,79.5580845 L573.276978,79.8548781 Z" id="color-blue-3" fill-opacity="0.2" fill="#47A2DF"></path>
                            <path d="M686.848026,79.4244072 C686.848026,79.4244072 708.814202,97.7702412 719.085303,109.916155 C728.915774,113.186384 732.044098,112.687101 735.418297,113.20173 C764.278591,109.813337 784.93402,79.3688132 784.93402,79.3688132 L686.848026,79.4244072 Z" id="color-blue-4" fill-opacity="0.2" fill="#47A2DF"></path>
                            <path d="M0.299860572,78.3845488 C0.299860572,78.3845488 22.9814954,57.3017564 61.5597303,57.3017564 C100.137965,57.3017564 91.1362188,2.63537204 122.8196,2.63537204 C154.502981,2.63537204 159.364748,51.6388328 184.07947,51.9354878 C208.794192,52.2321429 213.344381,8.75864322 245.339339,8.9998922 C277.334297,9.24114118 287.409318,34.4937722 306.599209,34.4937722 C333.891451,34.4285017 339.467633,15.9289202 367.859079,15.7233119 C417.837108,15.7233119 394.061777,105.509541 429.118949,105.509541 C450.239988,105.509541 461.99932,90.2164816 490.378818,90.2164816 C518.758317,90.2164816 527.744726,113.20173 551.638688,113.113098 C587.24131,113.113098 563.934827,0.0588727679 612.898558,0.0588727679 C661.862289,0.0588727679 640.823783,77.1580243 674.158427,77.1580243 C707.493072,77.1580243 699.537824,113.20173 735.418297,113.20173 C771.29877,113.20173 796.678167,59.8640287 796.678167,59.8640287" id="blu-line" stroke="#47A2DF" stroke-linecap="round" stroke-linejoin="round"></path>
                        </g>
                        <g id="pink-line" transform="translate(0.000000, 72.285714)" stroke-linecap="round" stroke="#D62368" fill-opacity="0.2" fill="#D62368" stroke-linejoin="round">
                            <path d="M0.299860572,34.3845488 C0.299860572,34.3845488 22.9814954,18.0160421 61.5597303,18.0160421 C100.137965,18.0160421 91.1362188,24.635372 122.8196,24.635372 C154.502981,24.635372 159.364748,7.63883278 184.07947,7.93548782 C208.794192,8.23214286 213.344381,26.0443575 245.339339,26.2856065 C277.334297,26.5268555 265.255508,20.2856445 306.599209,20.350915 C333.891451,20.2856445 339.467633,3.35749163 367.859079,3.15188328 C398.489014,3.15188328 406.120737,19.0809697 429.118949,19.0809697 C450.239988,19.0809697 461.99932,3.78791015 490.378818,3.78791015 C518.758317,3.78791015 527.744726,26.7731585 551.638688,26.6845264 C587.24131,26.6845264 583.37325,0.0588727679 612.898558,0.0588727679 C642.423865,0.0588727679 640.823783,33.1580243 674.158427,33.1580243 C707.493072,33.1580243 699.537824,22.0588728 735.418297,22.0588728 C771.29877,22.0588728 796.678167,34.7211716 796.678167,34.7211716"></path>
                        </g>
                    </g>
                </g>
            </g>
        </g>
    </g>
</svg>