<svg width="106" height="25" viewBox="0 0 106 25" xmlns="http://www.w3.org/2000/svg"><g fill="none" fill-rule="evenodd"><path d="M34.57 7.451l-4.685 12.035h1.635l1.348-3.624h5.09l1.315 3.624h1.77L36.34 7.45h-1.77zm-1.196 7.063l2.04-5.613h.033l2.006 5.613h-4.08zm8.663-3.742v12.034h1.433v-4.483h.034c.157.258.35.475.581.649.23.174.475.312.733.413a4.306 4.306 0 0 0 1.5.287c.663 0 1.245-.119 1.745-.355s.916-.559 1.247-.969c.332-.41.579-.89.742-1.441.163-.55.244-1.135.244-1.753 0-.618-.084-1.202-.253-1.753a4.43 4.43 0 0 0-.75-1.458 3.583 3.583 0 0 0-1.247-1.003c-.5-.247-1.087-.37-1.761-.37-.607 0-1.163.11-1.669.328-.506.22-.876.57-1.112 1.054h-.034v-1.18h-1.433zm6.742 4.28c0 .428-.045.844-.135 1.248a3.3 3.3 0 0 1-.438 1.079c-.202.315-.469.567-.8.758-.332.191-.745.287-1.24.287-.494 0-.915-.093-1.263-.278a2.454 2.454 0 0 1-.852-.733 3.066 3.066 0 0 1-.48-1.054 5.022 5.022 0 0 1-.152-1.239c0-.404.048-.803.144-1.196.095-.394.25-.745.463-1.054.214-.309.489-.559.826-.75.337-.19.747-.286 1.23-.286.461 0 .863.09 1.206.27.342.18.623.42.842.724.22.303.382.649.49 1.037.106.387.16.783.16 1.188zm3.253-4.28v12.034h1.433v-4.483h.034c.157.258.35.475.581.649.23.174.475.312.733.413a4.306 4.306 0 0 0 1.5.287c.663 0 1.245-.119 1.745-.355s.916-.559 1.247-.969c.332-.41.579-.89.742-1.441.163-.55.244-1.135.244-1.753 0-.618-.084-1.202-.253-1.753a4.43 4.43 0 0 0-.75-1.458 3.583 3.583 0 0 0-1.247-1.003c-.5-.247-1.087-.37-1.761-.37-.607 0-1.163.11-1.669.328-.506.22-.876.57-1.112 1.054h-.034v-1.18h-1.433zm6.742 4.28c0 .428-.045.844-.135 1.248a3.3 3.3 0 0 1-.438 1.079c-.202.315-.469.567-.8.758-.332.191-.745.287-1.24.287-.494 0-.915-.093-1.263-.278a2.454 2.454 0 0 1-.852-.733 3.066 3.066 0 0 1-.48-1.054 5.022 5.022 0 0 1-.152-1.239c0-.404.048-.803.144-1.196.095-.394.25-.745.463-1.054.214-.309.489-.559.826-.75.337-.19.747-.286 1.23-.286.461 0 .863.09 1.206.27.342.18.623.42.842.724.22.303.382.649.49 1.037.106.387.16.783.16 1.188zm15.086-4.078h1.516c-.022-.663-.148-1.233-.379-1.71a3.333 3.333 0 0 0-.944-1.189 3.893 3.893 0 0 0-1.39-.691 6.43 6.43 0 0 0-1.72-.22c-.55 0-1.087.071-1.609.211-.523.14-.989.354-1.399.641-.41.287-.739.652-.986 1.096-.247.443-.37.969-.37 1.575 0 .551.109 1.009.328 1.374.219.365.511.663.876.893.365.23.778.416 1.24.557.46.14.929.264 1.407.37.477.107.946.211 1.407.312.46.101.874.233 1.239.396.365.163.657.374.876.632.22.259.329.596.329 1.012 0 .438-.09.798-.27 1.079-.18.28-.416.502-.708.665-.292.163-.62.278-.986.346a5.978 5.978 0 0 1-1.087.1c-.45 0-.888-.055-1.315-.168a3.271 3.271 0 0 1-1.12-.522 2.682 2.682 0 0 1-.776-.902c-.196-.365-.295-.8-.295-1.306h-1.517c0 .73.132 1.362.396 1.896.265.534.624.972 1.08 1.315.454.342.982.598 1.584.767a7.316 7.316 0 0 0 3.573.059 4.804 4.804 0 0 0 1.508-.624c.45-.287.818-.657 1.104-1.112.287-.455.43-1.003.43-1.644 0-.595-.11-1.09-.329-1.483a2.928 2.928 0 0 0-.876-.978 4.642 4.642 0 0 0-1.239-.615c-.46-.152-.93-.284-1.407-.396a54.068 54.068 0 0 0-1.408-.312 7.37 7.37 0 0 1-1.238-.362 2.437 2.437 0 0 1-.877-.565c-.22-.23-.329-.53-.329-.901 0-.394.076-.722.228-.987a1.77 1.77 0 0 1 .607-.632 2.64 2.64 0 0 1 .868-.337c.326-.067.657-.1.994-.1.832 0 1.514.193 2.048.58.534.388.846 1.015.936 1.88zm5.713-.202V8.159h-1.432v2.613h-1.484v1.264h1.484v5.545c0 .405.039.73.118.978.078.247.2.438.362.573.163.135.376.227.64.278.265.05.582.076.953.076h1.095v-1.264h-.657c-.225 0-.407-.009-.548-.026a.708.708 0 0 1-.328-.11.416.416 0 0 1-.16-.235 1.563 1.563 0 0 1-.043-.405v-5.41h1.736v-1.264h-1.736zm2.849 4.365c0 .64.09 1.236.27 1.787.18.55.449 1.03.809 1.441.36.41.803.73 1.331.96.528.231 1.135.346 1.82.346.697 0 1.307-.115 1.83-.345a3.74 3.74 0 0 0 1.322-.961c.36-.41.63-.89.81-1.441.18-.55.27-1.146.27-1.787 0-.64-.09-1.239-.27-1.795a4.067 4.067 0 0 0-.81-1.45 3.83 3.83 0 0 0-1.323-.969c-.522-.236-1.132-.353-1.829-.353-.685 0-1.292.117-1.82.353a3.811 3.811 0 0 0-1.331.97c-.36.41-.63.893-.81 1.45a5.804 5.804 0 0 0-.27 1.794zm1.517 0c0-.528.07-.997.21-1.407.141-.41.335-.756.582-1.037.247-.28.537-.494.868-.64.332-.146.683-.22 1.053-.22.371 0 .722.074 1.054.22.331.146.62.36.868.64.247.281.441.627.581 1.037.14.41.211.88.211 1.407 0 .528-.07.997-.21 1.408-.141.41-.335.752-.582 1.028a2.523 2.523 0 0 1-.868.632c-.332.146-.683.219-1.054.219-.37 0-.721-.073-1.053-.22a2.523 2.523 0 0 1-.868-.631 2.945 2.945 0 0 1-.581-1.028c-.141-.41-.211-.88-.211-1.408zm8.579-4.365v8.714h1.433v-3.877c0-.562.056-1.059.168-1.492.113-.432.292-.8.54-1.104.247-.303.573-.533.977-.69.405-.158.894-.237 1.467-.237V10.57c-.776-.023-1.416.134-1.922.471-.506.338-.933.86-1.28 1.568h-.035v-1.837h-1.348zm12.793 5.95h-1.416c-.123.573-.38 1-.767 1.28-.387.281-.885.422-1.491.422-.472 0-.882-.079-1.23-.236a2.412 2.412 0 0 1-.86-.632 2.462 2.462 0 0 1-.49-.91 3.459 3.459 0 0 1-.134-1.087h6.523a6.938 6.938 0 0 0-.143-1.67 4.83 4.83 0 0 0-.64-1.617 3.816 3.816 0 0 0-1.231-1.222c-.512-.32-1.155-.48-1.93-.48-.596 0-1.144.112-1.644.337-.5.224-.932.539-1.297.943a4.35 4.35 0 0 0-.852 1.433 5.244 5.244 0 0 0-.303 1.82c.022.663.12 1.276.295 1.838a4.01 4.01 0 0 0 .784 1.45c.348.404.778.718 1.29.943.51.225 1.114.337 1.811.337.989 0 1.81-.247 2.46-.741.653-.495 1.074-1.23 1.265-2.208zm-1.382-2.428h-5.006c.022-.337.095-.654.219-.952a2.54 2.54 0 0 1 .506-.784c.213-.224.469-.401.767-.53.297-.13.632-.194 1.002-.194a2.45 2.45 0 0 1 1.762.716c.219.22.393.48.522.784.13.303.205.623.228.96z" fill="#898989"/><g stroke="#898989" stroke-width="1.6"><path d="M14.905 1.2c.382 2.403-1.797 5.375-4.402 5.278-.383-3.057 2.424-5.117 4.402-5.278z"/><path d="M15.35 6.199c2.595 0 4.254 2.51 4.254 2.51s-2.53 1.373-2.53 4.356c0 3.54 3.178 4.569 3.178 4.569s-2.509 5.953-5.326 5.953c-1.584 0-1.69-.911-3.796-.911-1.828 0-2.445.911-3.838.911-2.658 0-6.092-5.803-6.092-10.522 0-4.903 3.477-6.866 5.656-6.866 1.914 0 2.711 1.126 4.253 1.126 1.297 0 2.318-1.126 4.242-1.126z"/></g></g></svg>