<svg width="175" height="69" viewBox="41 27 175 69" xmlns="http://www.w3.org/2000/svg"><g fill="#F06617" fill-rule="evenodd"><path d="M121.414 43h6.621v8.762H134v5.246h-5.965v15.674c0 3.147.716 3.888 3.52 3.888h2.385V82h-4.831c-6.383 0-7.695-1.79-7.695-8.084V57.008H117v-5.246h4.414V43zM137 47.916h7V41h-7v6.916zM137 82h7V51.744h-7V82zM147 82h7V41h-7zM158 82h7V41h-7zM167 67c0-9.438 5.853-16 14.602-16 9.413 0 14.904 7.437 14.361 18.062h-22.205c.12 5.063 3.379 8.376 7.905 8.376 4.223 0 6.335-2.063 7.36-4.813l6.457.875c-1.388 4.563-5.672 9.5-13.697 9.5C171.948 83 167 75.938 167 67m6.758-3.063h15.387c-.181-4.687-3.44-7.625-7.482-7.625-3.922 0-7.663 2.313-7.905 7.625M216 58.782a28.922 28.922 0 0 0-3.2-.183c-4.328 0-6.837 1.894-6.837 8.004V82H199V52.06h6.838v4.95c1.693-3.238 4.705-4.95 8.468-5.01.565 0 1.192.06 1.694.122v6.66z"/><g><path d="M74 30.5a3.5 3.5 0 1 1-7 0 3.5 3.5 0 0 1 7 0M48 45.5a3.5 3.5 0 1 1-7 0 3.5 3.5 0 0 1 7 0M48 76.5a3.5 3.5 0 1 1-7 0 3.5 3.5 0 0 1 7 0M74 92.5a3.5 3.5 0 1 1-7 0 3.5 3.5 0 0 1 7 0M101 76.5a3.5 3.5 0 1 1-7 0 3.5 3.5 0 0 1 7 0M101 45.5a3.5 3.5 0 1 1-7 0 3.5 3.5 0 0 1 7 0M77 62a6 6 0 1 1-12 0 6 6 0 0 1 12 0M92 62a6 6 0 1 1-12 0 6 6 0 0 1 12 0M63 62a6 6 0 1 1-12 0 6 6 0 0 1 12 0M77 47a6 6 0 1 1-12 0 6 6 0 0 1 12 0M77 76a6 6 0 1 1-12 0 6 6 0 0 1 12 0"/></g></g></svg>