<svg width="114" height="21" viewBox="0 0 114 21" xmlns="http://www.w3.org/2000/svg"><g fill="#898989" fill-rule="evenodd"><path d="M79.868 12.743l-.918.876c-.212.118-.423.255-.633.353-.638.292-1.286.366-1.862.366-.613 0-1.574-.04-2.555-.758-1.362-.97-1.957-2.639-1.957-4.093C71.943 6.477 74.365 5 76.34 5c.69 0 1.4.175 1.976.544.959.641 1.207 1.475 1.344 1.922L75.15 9.31l-1.478.116c.479 2.468 2.129 3.904 3.953 3.904.91 0 1.587-.3 2.207-.611 0 0 .125-.066.036.024zm-2.722-4.91c.367-.134.557-.25.557-.521 0-.776-.867-1.672-1.902-1.672-.767 0-2.206.605-2.206 2.702 0 .328.039.677.058 1.025l3.493-1.534zm-6.71 4.76c0 .754.132.872.763.93.329.04.656.057.98.096l-.71.428h-3.381c.443-.582.52-.64.52-1.028v-.434L68.6 1.041h-1.493L68.544.34h2.745c-.595.349-.773.56-.85 1.24l-.004 11.013zm-5.246-6.64c.44.366 1.36 1.144 1.36 2.62 0 1.438-.8 2.115-1.609 2.757-.248.253-.538.526-.538.95 0 .43.29.663.499.837l.693.541c.843.72 1.611 1.38 1.611 2.72 0 1.827-1.747 3.669-5.048 3.669-2.781 0-4.126-1.34-4.126-2.777 0-.7.345-1.69 1.48-2.368 1.19-.736 2.801-.834 3.664-.892-.27-.352-.577-.72-.577-1.323 0-.329.098-.525.192-.756-.21.02-.421.04-.613.04-2.036 0-3.186-1.536-3.186-3.05 0-.893.403-1.884 1.23-2.602 1.094-.911 2.398-1.068 3.435-1.068h3.955l-1.23.702H65.19zm-1.36 8.62c-.157-.02-.252-.02-.442-.02-.174 0-1.21.037-2.013.31-.425.157-1.653.621-1.653 2 0 1.377 1.326 2.37 3.376 2.37 1.843 0 2.821-.894 2.821-2.097 0-.99-.633-1.513-2.089-2.563zm.552-3.69c.444-.448.482-1.067.482-1.418 0-1.397-.823-3.572-2.418-3.572-.497 0-1.037.253-1.343.643-.324.405-.422.93-.422 1.434 0 1.3.75 3.457 2.399 3.457.48 0 .998-.236 1.302-.544zm-11.09 3.415c-3.05 0-4.683-2.404-4.683-4.58C48.61 7.176 50.661 5 53.58 5c2.822 0 4.589 2.235 4.589 4.581 0 2.292-1.747 4.717-4.876 4.717zm2.4-1.571c.464-.621.576-1.397.576-2.153 0-1.71-.805-4.972-3.185-4.972-.633 0-1.27.25-1.73.66-.75.679-.883 1.533-.883 2.37 0 1.919.937 5.083 3.263 5.083.75 0 1.517-.368 1.959-.988zm-12.613 1.57c-3.052 0-4.68-2.403-4.68-4.579C38.398 7.176 40.45 5 43.367 5c2.82 0 4.585 2.235 4.585 4.581 0 2.292-1.744 4.717-4.874 4.717zm2.4-1.57c.46-.621.576-1.397.576-2.153 0-1.71-.808-4.972-3.186-4.972-.635 0-1.266.25-1.726.66-.751.679-.884 1.533-.884 2.37 0 1.919.941 5.083 3.263 5.083.75 0 1.514-.368 1.957-.988zm-8.3.897l-2.573.596c-1.043.166-1.979.313-2.97.313-4.963 0-6.854-3.696-6.854-6.589 0-3.532 2.68-6.807 7.268-6.807.97 0 1.904.144 2.755.379 1.349.383 1.98.856 2.373 1.132l-1.494 1.437-.63.142.449-.724c-.609-.601-1.727-1.711-3.85-1.711-2.839 0-4.98 2.183-4.98 5.37 0 3.423 2.445 6.643 6.366 6.643 1.152 0 1.746-.234 2.284-.453v-2.935l-2.716.148 1.44-.782h3.812l-.466.454c-.126.108-.143.145-.178.29a13.16 13.16 0 0 0-.037.878v2.219zm48.221-.798v4.946h-.97V5.187h.97V6.62c.632-.926 1.788-1.66 3.13-1.66 2.407 0 4.029 1.847 4.029 4.772 0 2.905-1.622 4.791-4.029 4.791-1.267 0-2.402-.66-3.13-1.697zm6.116-3.094c0-2.204-1.136-3.886-3.15-3.886-1.25 0-2.446.995-2.966 1.862v4.028c.52.869 1.716 1.9 2.966 1.9 2.014 0 3.15-1.696 3.15-3.904zm2.368-8.02h.97v12.585h-.97V1.712zm11.863 15.246c.208.094.562.151.787.151.594 0 1.007-.245 1.378-1.113l.709-1.623-3.824-9.186h1.082l3.28 7.96 3.25-7.96h1.097L108.842 16.3c-.484 1.145-1.245 1.696-2.291 1.696-.314 0-.728-.056-.97-.132l.166-.906zm-2.835-2.688a17.09 17.09 0 0 1-.15-.827 5.61 5.61 0 0 1-.046-.71c-.333.494-.804.905-1.407 1.23-.602.326-1.175.486-1.96.486-.946 0-1.68-.236-2.204-.713-.522-.477-.785-1.123-.785-1.941 0-.817.38-1.48 1.139-1.986.759-.51 1.74-.763 2.953-.763h2.264V7.914c0-.652-.22-1.164-.658-1.536-.44-.372-1.058-.56-1.859-.56-.732 0-1.325.172-1.778.507-.448.341-.673.765-.673 1.275h-.994l-.02-.049c-.036-.688.275-1.291.936-1.813.659-.52 1.521-.782 2.583-.782 1.059 0 1.915.257 2.56.772.645.51.969 1.245.969 2.207v4.494a6.02 6.02 0 0 0 .249 1.84h-1.12zm-3.445-.716c.825 0 1.418-.187 2.023-.555.602-.367 1.011-.845 1.226-1.424v-1.75h-2.275c-.869 0-1.588.195-2.154.588-.567.391-.854.865-.854 1.415 0 .52.181.935.543 1.25.363.318.859.476 1.491.476zM1.316 17.572c-.313-.084-.516-.394-.516-.874V.853C.8.41.972.11 1.245 0l7.786 8.83-7.715 8.742zm1.072-.336l9.372-5.312-2.283-2.589-7.09 7.9zm9.436-11.57L2.583.425 9.49 8.31l2.333-2.645zm.627.355l3.62 2.052c.686.389.692 1.015 0 1.407l-3.711 2.104L9.939 8.82l2.512-2.8z"/></g></svg>