<svg width="799" height="224" viewBox="0 0 799 224" xmlns="http://www.w3.org/2000/svg"><path d="M-1.15 225.092l-1.628-99.015s23.061-8.653 62.284-8.653 30.071-12.127 62.284-12.127c32.213 0 37.156-9.91 62.284-9.432 25.128.478 29.754 17.668 62.284 18.057 32.53.388 42.773-12.998 62.284-12.998 27.748-.105 33.418-24.858 62.284-25.19 50.813 0 26.64-7.252 62.283-7.252 21.475 0 33.43-24.65 62.284-24.65s37.99-4.621 62.284-4.764c36.198 0 21.72-8.476 62.284-8.6 37.015-.37 31.048-1.229 62.284-1.229s25.804-23.528 62.284-23.528c36.48 0 62.284-6.88 62.284-6.88v226.261" stroke="#35DB9B" fill="#35DB9B" fill-rule="evenodd" stroke-linecap="round" fill-opacity=".2" stroke-linejoin="round"/></svg>