<svg width="798" height="165" viewBox="0 0 798 165" xmlns="http://www.w3.org/2000/svg"><g fill="none" fill-rule="evenodd"><path d="M.3 107.67s22.681-5.368 61.26-5.368c38.578 0 29.576-7.524 61.26-7.524 31.683 0 36.545 36.432 61.26 36.729 24.714.297 29.264 32.252 61.26 32.493 31.994.241 42.07-71.935 61.26-71.935 27.291-.065 32.868-15.422 61.26-15.627 49.977 0 26.202-4.5 61.259-4.5 21.121 0 32.88-15.293 61.26-15.293 28.38 0 37.366-24.158 61.26-24.246 35.602 0 21.362-26.55 61.26-26.626 36.406-.23 30.537 20.528 61.26 20.528 30.722 0 25.379-25.242 61.26-25.242 35.88 0 61.26 6.376 61.26 6.376" stroke="#FFAA19" stroke-linecap="round" stroke-linejoin="round"/><path d="M290.339 108.786s10.266-16.72 16.26-16.72c27.292-.066 32.869-15.423 61.26-15.628 49.978 0 26.203-4.5 61.26-4.5 21.121 0 32.88-15.293 61.26-15.293 28.38 0 37.366-24.158 61.26-24.246 35.602 0 12.296-26.626 61.26-26.626 48.963 0 16.842 18.956 61.26 18.956 32.957 1.255 25.379-23.67 61.26-23.67 35.88 0 61.26 6.376 61.26 6.376l1.22 100.332-507.56 1.019zM152.498 109.19s17.482 22.148 31.581 22.317c24.715.297 29.265 32.252 61.26 32.493 21.85.165 44.765-54.773 44.765-54.773l-137.606-.037zM.3 107.67s22.681-5.368 61.26-5.368c38.578 0 29.576-7.524 61.26-7.524 13.37 0 29.288 14.01 29.288 14.01L.3 107.67z" fill-opacity=".2" fill="#FFAA19"/><g><path d="M.3 107.67S22.98 86.587 61.56 86.587c38.578 0 29.576-54.666 61.26-54.666 31.683 0 36.545 49.004 61.26 49.3 24.714.297 29.264-43.177 61.26-42.935 31.994.24 42.07 25.493 61.26 25.493 27.291-.065 32.868-18.564 61.26-18.77 36.73-.179 39.923 62.57 39.923 62.57L.3 107.67zM408.123 109s4.244 25.795 20.996 25.795c21.121 0 32.88-15.293 61.26-15.293 28.38 0 37.366 22.985 61.26 22.897 16.118 1.66 21.654-33.338 21.654-33.338l-165.17-.06z" fill-opacity=".2" fill="#47A2DF"/><path d="M573.277 109.14s5.192-79.795 39.622-79.795c50.087 1.94 27.925 77.099 61.26 77.099 5.249 0 13.008 2.4 13.008 2.4l-113.89.297z" fill-opacity=".2" fill="#47A2DF"/><path d="M686.848 108.71s21.966 18.346 32.237 30.492c9.83 3.27 12.96 2.77 16.333 3.285 28.86-3.388 49.516-33.832 49.516-33.832l-98.086.055z" fill-opacity=".2" fill="#47A2DF"/><path d="M.3 107.67S22.98 86.587 61.56 86.587c38.578 0 29.576-54.666 61.26-54.666 31.683 0 36.545 49.004 61.26 49.3 24.714.297 29.264-43.177 61.26-42.935 31.994.24 42.07 25.493 61.26 25.493 27.291-.065 32.868-18.564 61.26-18.77 49.977 0 26.202 89.786 61.259 89.786 21.121 0 32.88-15.293 61.26-15.293 28.38 0 37.366 22.985 61.26 22.897 35.602 0 12.296-113.054 61.26-113.054 48.963 0 27.925 77.099 61.26 77.099 33.334 0 25.379 36.043 61.26 36.043 35.88 0 61.26-53.337 61.26-53.337" stroke="#47A2DF" stroke-linecap="round" stroke-linejoin="round"/></g><g stroke-linecap="round" stroke="#D62368" fill-opacity=".2" fill="#D62368" stroke-linejoin="round"><path d="M.3 107.67S22.98 91.302 61.56 91.302c38.578 0 29.576 6.62 61.26 6.62 31.683 0 36.545-16.997 61.26-16.7 24.714.296 29.264 18.108 61.26 18.35 31.994.24 19.916-6 61.26-5.935 27.291-.066 32.868-16.994 61.26-17.2 30.629 0 38.26 15.93 61.259 15.93 21.121 0 32.88-15.293 61.26-15.293 28.38 0 37.366 22.985 61.26 22.896 35.602 0 31.734-26.625 61.26-26.625 29.525 0 27.925 33.099 61.26 33.099 33.334 0 25.379-11.1 61.26-11.1 35.88 0 61.26 12.663 61.26 12.663"/></g></g></svg>